<svg width="218" height="163" viewBox="0 0 218 163" fill="none" xmlns="http://www.w3.org/2000/svg">
<path fill-rule="evenodd" clip-rule="evenodd" d="M20.0697 93.8873H0.359253V109.656L36.1145 110.072C30.4513 116.463 27.0244 126.065 27.0244 135.989C27.0244 147.433 36.295 159.928 55.0463 162.085C73.9956 159.426 77.8916 153.495 82.6429 140.808H110.052C113.961 154.646 118.91 159.253 132.205 162.397C140.911 161.398 145.331 159.126 152.104 150.946V144.187C111.664 136.945 98.2128 124.557 87.8994 90.12V0.75885H52.6055L20.0697 32.8613V93.8873ZM55.826 112.751C43.9617 112.751 35.2072 121.082 35.2072 132.378C35.2072 143.298 40.7852 152.208 55.826 153.129C67.3109 151.772 73.896 146.875 74.5549 132.755C75.1082 120.898 63.306 112.751 55.826 112.751Z" fill="#0A1638"/>
<path d="M66.5847 132.771C66.5847 139.278 61.279 144.553 54.7341 144.553C48.1893 144.553 42.8836 139.278 42.8836 132.771C42.8836 126.264 48.1893 120.989 54.7341 120.989C61.279 120.989 66.5847 126.264 66.5847 132.771Z" fill="#0A1638"/>
<path fill-rule="evenodd" clip-rule="evenodd" d="M94.8867 59.7925V93.2327C103.225 117.155 113.705 126.168 137.856 138.108H174.762C196.344 127.316 205.729 117.612 217.212 93.2327V59.7925C205.172 34.902 195.273 26.3395 174.762 15.9564H137.856C115.083 27.2885 105.16 36.3898 94.8867 59.7925ZM101.266 83.8731V95.324C112.672 113.921 120.764 122.353 139.273 132.6H172.895C191.77 121.37 198.885 112.618 209.197 95.324C211.054 81.9086 211.353 74.3867 209.197 60.9713C201.082 42.2645 192.817 34.0263 172.895 22.4768H147.313V27.1059H172.895C187.948 38.9711 194.493 46.2656 201.644 60.9713C205.171 73.9929 204.339 81.6077 201.644 95.324C192.825 110.06 186.398 116.765 171.433 125.048H139.273C121.462 115.783 115.233 108.614 107.941 93.8192V83.8731H101.266ZM145.444 107.297H159.183V99.7116H145.444C139.104 96.0991 136.065 93.3741 132.529 85.9725C131.33 78.7468 130.899 74.6959 132.529 67.4702C136.051 61.1117 139.088 58.835 145.444 55.9127H164.679C171.855 59.8032 175.087 63.1667 178.143 73.224H183.69C182.965 59.1368 178.081 53.6866 164.679 47.9441C157.608 46.8057 153.793 46.7169 147.368 47.9441C138.235 51.2288 134.838 54.8968 127.417 63.8814C125.234 74.1597 125.056 79.6256 127.417 88.6118C132.09 97.7165 136.61 101.37 145.444 107.297ZM154.701 86.1902C159.103 86.1902 162.672 82.6214 162.672 78.2191C162.672 73.8168 159.103 70.2481 154.701 70.2481C150.299 70.2481 146.73 73.8168 146.73 78.2191C146.73 82.6214 150.299 86.1902 154.701 86.1902Z" fill="#0A1638"/>
<path d="M92.8539 0.562991C91.767 0.427125 92.401 32.5469 92.8539 48.6237C107.778 22.4833 121.149 15.6659 149.406 10.4129L142.443 0.562991C126.366 0.619602 93.9408 0.698857 92.8539 0.562991Z" fill="#0A1638"/>
</svg>
