<svg width="214" height="162" viewBox="0 0 214 162" fill="none" xmlns="http://www.w3.org/2000/svg">
<path fill-rule="evenodd" clip-rule="evenodd" d="M12.8546 100.102C11.6559 100.102 4.27317 97.014 0.731628 95.4702V38.5332H22.9344V19.7357L48.4062 6.38684H51.9478L62.1638 25.1843H68.0209L75.104 0.257263H145.118L153.018 25.1843H158.875L169.596 6.62718H174.938C175.279 6.91943 175.638 7.23327 176.022 7.56948C179.282 10.4215 184.381 14.8829 196.716 21.4226L197.56 28.5896C207.084 33.7724 210.701 38.6984 213.633 51.6096V62.9153C210.125 74.24 206.523 78.6135 197.56 83.3473V112.836C162.007 118.673 145.118 137.018 146.025 161.004H76.0478V151.833H53.12L35.974 134.488V116.145L22.9344 111.959V90.2271H12.8546V100.102ZM11.4152 48.7239H22.9606V61.4239H11.4152V48.7239ZM22.9606 69.1909H11.4152V81.8909H22.9606V69.1909ZM62.6291 146.17C73.5741 146.17 82.4468 137.298 82.4468 126.353C82.4468 115.408 73.5741 106.535 62.6291 106.535C51.684 106.535 42.8113 115.408 42.8113 126.353C42.8113 137.298 51.684 146.17 62.6291 146.17ZM207.972 57.4449C207.972 72.1691 196.036 84.1054 181.312 84.1054C166.587 84.1054 154.651 72.1691 154.651 57.4449C154.651 42.7207 166.587 30.7844 181.312 30.7844C196.036 30.7844 207.972 42.7207 207.972 57.4449ZM145.242 51.5672L72.0516 96.9845L77.12 104.499L150.31 59.0816L145.242 51.5672ZM165.898 82.9406L89.1157 124.586L94.1842 132.1L170.967 90.4549L165.898 82.9406Z" fill="#0A1638"/>
<path d="M75.131 126.16C75.131 132.956 69.6223 138.464 62.8268 138.464C56.0314 138.464 50.5226 132.956 50.5226 126.16C50.5226 119.365 56.0314 113.856 62.8268 113.856C69.6223 113.856 75.131 119.365 75.131 126.16Z" fill="#0A1638"/>
<path d="M192.953 56.4361C192.953 63.1629 187.5 68.616 180.773 68.616C174.047 68.616 168.594 63.1629 168.594 56.4361C168.594 49.7093 174.047 44.2561 180.773 44.2561C187.5 44.2561 192.953 49.7093 192.953 56.4361Z" fill="#0A1638"/>
</svg>
