<svg width="237" height="166" viewBox="0 0 237 166" fill="none" xmlns="http://www.w3.org/2000/svg">
<path fill-rule="evenodd" clip-rule="evenodd" d="M36.9866 165.056L21.9176 146.509L40.0777 117.917H65.1926V104.007H50.51L36.9866 86.6197L54.3738 37.1627H123.923V32.9125L40.0777 16.298L7.62146 37.1627L0.280151 25.9576L40.0777 2.77459L123.923 22.0938H130.878V13.2069H123.923V0.456299H211.632V13.2069H203.86L213.841 87.0279L200.822 102.651H187.658V116.249H220.206L236.676 144.997L220.206 165.376L36.9866 165.056ZM142.576 12.9771L132.64 80.5528L142.576 91.9556H191.909L203.214 82.3631L194.206 12.9771L142.576 12.9771Z" fill="#0A1638"/>
<path d="M150.698 85.598L138.997 75.5038L190.386 26.6387V45.2212L150.698 85.598Z" fill="#0A1638"/>
<path d="M193.368 50.7271L158.727 84.2215H169.051L193.368 59.9036V50.7271Z" fill="#0A1638"/>
</svg>
