<svg width="386" height="166" viewBox="0 0 386 166" fill="none" xmlns="http://www.w3.org/2000/svg">
<path d="M66.4387 110.356C64.9088 110.356 63.5823 110.201 62.4592 109.892C61.3362 109.583 60.4817 109.306 59.8958 109.062C59.3098 108.802 58.9599 108.647 58.8459 108.598C58.6018 108.5 58.3251 108.362 58.0159 108.183C57.8368 108.085 57.6578 108.004 57.4788 107.939C57.316 107.874 57.1777 107.841 57.0637 107.841C56.787 107.841 56.5103 108.012 56.2336 108.354C55.6477 109.021 55.0536 109.355 54.4514 109.355C54.0608 109.355 53.7434 109.249 53.4993 109.038C53.2714 108.81 53.1737 108.525 53.2063 108.183C53.2389 107.858 53.2551 107.483 53.2551 107.06V106.108C53.2551 104.806 53.1656 103.081 52.9866 100.932C52.8889 99.6626 52.8401 98.9139 52.8401 98.686C52.8401 97.6606 53.2877 97.1479 54.1829 97.1479C54.5409 97.1479 54.842 97.2374 55.0862 97.4165C55.3303 97.5792 55.5012 97.8315 55.5989 98.1733C55.9407 99.6219 56.5103 101.103 57.3079 102.617C58.2356 104.326 59.5295 105.677 61.1897 106.669C62.8499 107.662 64.5995 108.159 66.4387 108.159C67.4316 108.159 68.3512 107.988 69.1975 107.646C70.0601 107.304 70.7519 106.767 71.2727 106.035C71.7935 105.286 72.0458 104.342 72.0295 103.203C72.0133 101.949 71.6308 100.843 70.8821 99.8823C70.1497 98.9057 69.2545 98.0757 68.1965 97.3921C67.1386 96.7085 65.7389 95.9109 63.9973 94.9995C63.8346 94.9181 63.6881 94.8449 63.5579 94.7798C63.4439 94.7147 63.3381 94.6577 63.2405 94.6089C61.2385 93.5672 59.6109 92.6232 58.3577 91.7768C57.1044 90.9142 56.0221 89.8237 55.1106 88.5053C54.2154 87.1707 53.7597 85.6001 53.7434 83.7934C53.7271 81.824 54.2317 80.1232 55.2571 78.6909C56.2825 77.2423 57.6822 76.1437 59.4563 75.395C61.2304 74.6463 63.1998 74.2719 65.3645 74.2719C66.5852 74.2719 67.6106 74.3533 68.4407 74.5161C69.2708 74.6788 70.1171 74.8986 70.9797 75.1753C71.6959 75.4031 72.1842 75.5171 72.4446 75.5171C72.6887 75.5171 72.8759 75.4845 73.0061 75.4194C73.1363 75.3543 73.2665 75.2566 73.3967 75.1264C73.5432 74.9962 73.6653 74.8986 73.7629 74.8335C73.942 74.7195 74.1698 74.6626 74.4465 74.6626C74.8372 74.6626 75.2034 74.7602 75.5452 74.9555C75.887 75.1346 76.0579 75.3462 76.0579 75.5903C76.0741 76.7947 76.2043 78.5037 76.4485 80.7173C76.595 82.0031 76.6682 82.8087 76.6682 83.1342C76.6682 83.6225 76.5299 83.9806 76.2532 84.2085C75.9765 84.4201 75.6347 84.5258 75.2278 84.5258C74.9348 84.5258 74.6825 84.477 74.4709 84.3794C74.2756 84.2817 74.1373 84.1434 74.0559 83.9643C73.8931 83.0529 73.5351 82.0275 72.9817 80.8882C72.4283 79.7326 71.5494 78.6909 70.345 77.7632C69.1568 76.8191 67.6269 76.3471 65.7551 76.3471C64.0299 76.3471 62.6139 76.7296 61.5071 77.4946C60.4003 78.2433 59.8469 79.4477 59.8469 81.1079C59.8469 82.2635 60.2375 83.3214 61.0188 84.2817C61.8163 85.242 62.7766 86.0883 63.8997 86.8208C65.039 87.5369 66.512 88.367 68.3186 89.311C70.467 90.4341 72.2249 91.4513 73.592 92.3628C74.9755 93.2742 76.1555 94.4054 77.1321 95.7563C78.1086 97.091 78.5969 98.6372 78.5969 100.395C78.5969 102.429 78.0517 104.204 76.9612 105.717C75.8707 107.215 74.3977 108.362 72.5422 109.16C70.703 109.957 68.6685 110.356 66.4387 110.356Z" fill="#2F3F6D"/>
<path d="M114.827 97.0258C114.827 99.7928 114.307 102.177 113.265 104.179C112.24 106.165 110.75 107.687 108.797 108.745C106.86 109.803 104.541 110.332 101.839 110.332C97.0865 110.332 93.3837 109.208 90.7307 106.962C88.094 104.716 86.7756 101.233 86.7756 96.5132L86.8 79.4966C86.8 78.8455 86.6292 78.3572 86.2874 78.0317C85.9456 77.6899 85.5387 77.4702 85.0667 77.3725C84.6109 77.2749 84.0331 77.1935 83.3333 77.1284C82.9752 77.0958 82.7392 77.0307 82.6252 76.9331C82.5113 76.8191 82.4543 76.5831 82.4543 76.2251C82.4543 75.9809 82.5276 75.7124 82.6741 75.4194C82.8368 75.1264 83.0403 74.9799 83.2844 74.9799H97.7375C97.9817 74.9799 98.177 75.1264 98.3235 75.4194C98.4862 75.7124 98.5676 75.9809 98.5676 76.2251C98.5676 76.5018 98.5025 76.7215 98.3723 76.8842C98.2584 77.0307 98.0549 77.1121 97.762 77.1284C96.7203 77.2098 95.8333 77.3725 95.1008 77.6167C94.3684 77.8445 94.0022 78.2026 94.0022 78.6909L93.9778 96.8305C93.9778 99.4998 94.2626 101.656 94.8323 103.3C95.4182 104.944 96.289 106.149 97.4446 106.914C98.6165 107.662 100.114 108.037 101.937 108.037C104.281 108.037 106.201 107.548 107.698 106.572C109.196 105.595 110.278 104.285 110.946 102.641C111.629 100.997 111.971 99.1417 111.971 97.0747V79.2524C111.971 78.5525 111.54 78.0561 110.677 77.7632C109.814 77.4702 108.805 77.2586 107.65 77.1284C107.292 77.0958 107.056 77.0307 106.942 76.9331C106.828 76.8191 106.771 76.5831 106.771 76.2251C106.771 75.9809 106.844 75.7124 106.99 75.4194C107.153 75.1264 107.357 74.9799 107.601 74.9799H118.978C119.222 74.9799 119.417 75.1264 119.564 75.4194C119.726 75.7124 119.808 75.9809 119.808 76.2251C119.808 76.5018 119.743 76.7215 119.613 76.8842C119.499 77.0307 119.295 77.1121 119.002 77.1284C117.716 77.1772 116.707 77.4132 115.975 77.8364C115.242 78.2433 114.876 78.8292 114.876 79.5942L114.827 97.0258Z" fill="#2F3F6D"/>
<path d="M123.323 109.624C123.079 109.624 122.876 109.477 122.713 109.184C122.567 108.891 122.493 108.623 122.493 108.378C122.493 108.102 122.55 107.89 122.664 107.744C122.778 107.597 122.99 107.508 123.299 107.475C126.147 107.247 127.572 106.564 127.572 105.424V80.3755C127.572 79.7244 127.319 79.171 126.815 78.7153C126.326 78.2433 125.74 77.8771 125.057 77.6167C124.373 77.3563 123.739 77.1935 123.153 77.1284C122.795 77.0958 122.559 77.0307 122.445 76.9331C122.331 76.8191 122.274 76.5831 122.274 76.2251C122.274 75.9809 122.347 75.7124 122.493 75.4194C122.656 75.1264 122.86 74.9799 123.104 74.9799H133.797L153.304 99.4673H153.597V79.4966C153.597 78.8618 153.353 78.3816 152.865 78.0561C152.392 77.7306 151.92 77.5272 151.448 77.4458C150.976 77.3481 150.22 77.2423 149.178 77.1284C148.82 77.0958 148.584 77.0307 148.47 76.9331C148.356 76.8191 148.299 76.5831 148.299 76.2251C148.299 75.9809 148.372 75.7124 148.519 75.4194C148.682 75.1264 148.885 74.9799 149.129 74.9799H160.555C160.799 74.9799 160.994 75.1264 161.141 75.4194C161.304 75.7124 161.385 75.9809 161.385 76.2251C161.385 76.5018 161.328 76.7133 161.214 76.8598C161.1 77.0063 160.889 77.0958 160.579 77.1284C159.375 77.2749 158.358 77.5027 157.528 77.812C156.714 78.1049 156.307 78.6421 156.307 79.4233V106.865C156.307 107.158 156.331 107.467 156.38 107.792L156.453 108.647C156.502 109.233 156.274 109.664 155.77 109.941C155.281 110.218 154.753 110.356 154.183 110.356C153.939 110.356 153.686 110.299 153.426 110.185C153.182 110.087 152.995 109.965 152.865 109.819L130.867 82.4995H130.452V105.107C130.452 105.742 130.705 106.222 131.209 106.547C131.73 106.873 132.226 107.076 132.698 107.158C133.17 107.239 133.976 107.345 135.115 107.475C135.474 107.508 135.71 107.581 135.823 107.695C135.937 107.792 135.994 108.02 135.994 108.378C135.994 108.623 135.913 108.891 135.75 109.184C135.604 109.477 135.408 109.624 135.164 109.624H123.323Z" fill="#2F3F6D"/>
<path d="M182.528 110.356C179.761 110.356 176.945 109.754 174.08 108.549C171.232 107.345 168.823 105.4 166.854 102.714C164.884 100.013 163.9 96.5701 163.9 92.3872C163.9 88.2042 164.876 84.7537 166.829 82.0356C168.782 79.3175 171.208 77.34 174.105 76.103C177.018 74.866 179.956 74.2475 182.918 74.2475C185.701 74.2475 188.078 74.4673 190.047 74.9067C192.033 75.3462 193.66 75.8426 194.93 76.396L195.467 83.9643C195.483 84.2247 195.345 84.4526 195.052 84.6479C194.759 84.8432 194.49 84.9409 194.246 84.9409L193.929 84.9653C193.587 84.9653 193.27 84.9083 192.977 84.7944C192.684 84.6805 192.513 84.5014 192.464 84.2573C191.829 81.9624 190.747 80.115 189.217 78.7153C187.703 77.3156 185.587 76.6076 182.869 76.5913C181.339 76.5913 179.761 77.0145 178.133 77.8608C176.522 78.7072 175.114 80.3104 173.909 82.6704C172.705 85.0141 172.103 88.2531 172.103 92.3872C172.103 96.0656 172.697 99.0766 173.885 101.42C175.089 103.764 176.546 105.457 178.255 106.499C179.964 107.524 181.608 108.037 183.187 108.037C187.028 108.037 188.948 106.971 188.948 104.838V98.4907C188.948 97.8397 188.721 97.3514 188.265 97.0258C187.825 96.7003 187.321 96.4887 186.751 96.3911C186.182 96.2934 185.425 96.2039 184.481 96.1225C184.123 96.09 183.887 96.0249 183.773 95.9272C183.659 95.8133 183.602 95.5773 183.602 95.2192C183.602 94.9751 183.675 94.7065 183.822 94.4135C183.984 94.1206 184.188 93.9741 184.432 93.9741H198.787C199.031 93.9741 199.227 94.1206 199.373 94.4135C199.536 94.7065 199.617 94.9751 199.617 95.2192C199.617 95.4959 199.56 95.7075 199.447 95.854C199.333 96.0005 199.121 96.09 198.812 96.1225C197.949 96.2039 197.257 96.3667 196.737 96.6108C196.216 96.8387 195.955 97.1967 195.955 97.685L196.029 106.621C195.736 107.044 194.979 107.556 193.758 108.159C192.537 108.745 190.95 109.257 188.997 109.697C187.044 110.136 184.888 110.356 182.528 110.356Z" fill="#2F3F6D"/>
<path d="M234.993 97.0258C234.993 99.7928 234.473 102.177 233.431 104.179C232.406 106.165 230.916 107.687 228.963 108.745C227.026 109.803 224.707 110.332 222.005 110.332C217.253 110.332 213.55 109.208 210.897 106.962C208.26 104.716 206.942 101.233 206.942 96.5132L206.966 79.4966C206.966 78.8455 206.795 78.3572 206.453 78.0317C206.112 77.6899 205.705 77.4702 205.233 77.3725C204.777 77.2749 204.199 77.1935 203.499 77.1284C203.141 77.0958 202.905 77.0307 202.791 76.9331C202.677 76.8191 202.62 76.5831 202.62 76.2251C202.62 75.9809 202.694 75.7124 202.84 75.4194C203.003 75.1264 203.206 74.9799 203.45 74.9799H217.904C218.148 74.9799 218.343 75.1264 218.49 75.4194C218.652 75.7124 218.734 75.9809 218.734 76.2251C218.734 76.5018 218.669 76.7215 218.538 76.8842C218.424 77.0307 218.221 77.1121 217.928 77.1284C216.886 77.2098 215.999 77.3725 215.267 77.6167C214.534 77.8445 214.168 78.2026 214.168 78.6909L214.144 96.8305C214.144 99.4998 214.429 101.656 214.998 103.3C215.584 104.944 216.455 106.149 217.611 106.914C218.782 107.662 220.28 108.037 222.103 108.037C224.447 108.037 226.367 107.548 227.865 106.572C229.362 105.595 230.444 104.285 231.112 102.641C231.795 100.997 232.137 99.1417 232.137 97.0747V79.2524C232.137 78.5525 231.706 78.0561 230.843 77.7632C229.98 77.4702 228.971 77.2586 227.816 77.1284C227.458 77.0958 227.222 77.0307 227.108 76.9331C226.994 76.8191 226.937 76.5831 226.937 76.2251C226.937 75.9809 227.01 75.7124 227.156 75.4194C227.319 75.1264 227.523 74.9799 227.767 74.9799H239.144C239.388 74.9799 239.583 75.1264 239.73 75.4194C239.892 75.7124 239.974 75.9809 239.974 76.2251C239.974 76.5018 239.909 76.7215 239.779 76.8842C239.665 77.0307 239.461 77.1121 239.168 77.1284C237.882 77.1772 236.873 77.4132 236.141 77.8364C235.408 78.2433 235.042 78.8292 235.042 79.5942L234.993 97.0258Z" fill="#2F3F6D"/>
<path d="M244.759 109.624C244.515 109.624 244.311 109.477 244.149 109.184C244.002 108.891 243.929 108.623 243.929 108.378C243.929 108.102 243.986 107.89 244.1 107.744C244.214 107.597 244.425 107.508 244.735 107.475C245.695 107.394 246.501 107.239 247.152 107.011C247.803 106.767 248.128 106.401 248.128 105.913L248.153 79.4966C248.153 78.8455 247.982 78.3572 247.64 78.0317C247.298 77.7062 246.916 77.5027 246.492 77.4214C246.069 77.3237 245.467 77.226 244.686 77.1284C244.328 77.0958 244.092 77.0307 243.978 76.9331C243.864 76.8191 243.807 76.5831 243.807 76.2251C243.807 75.9809 243.88 75.7124 244.027 75.4194C244.189 75.1264 244.393 74.9799 244.637 74.9799L247.323 74.9555C247.746 74.9393 248.389 74.9311 249.251 74.9311C250.309 74.9311 251.912 74.8986 254.061 74.8335C256.405 74.7684 258.333 74.7358 259.847 74.7358C264.079 74.7521 267.366 75.5089 269.71 77.0063C272.054 78.4874 273.226 80.8149 273.226 83.9887C273.226 86.7719 272.469 88.896 270.955 90.3608C269.442 91.8257 267.334 92.9161 264.632 93.6323C266.081 93.7788 267.261 94.1775 268.172 94.8286C269.1 95.4796 269.816 96.2446 270.321 97.1235C270.841 97.9861 271.419 99.1661 272.054 100.664C272.477 101.64 272.811 102.405 273.055 102.958C273.315 103.496 273.616 104.041 273.958 104.594C274.463 105.587 275 106.295 275.57 106.718C276.156 107.141 276.782 107.386 277.449 107.451C277.791 107.483 278.019 107.573 278.133 107.719C278.263 107.866 278.328 108.126 278.328 108.5C278.328 108.728 278.247 108.972 278.084 109.233C277.938 109.493 277.742 109.624 277.498 109.624H269.783C269.002 109.624 268.335 109.322 267.781 108.72C267.228 108.118 266.764 107.369 266.39 106.474C266.016 105.563 265.576 104.334 265.072 102.788C264.469 100.965 263.924 99.4998 263.436 98.393C262.964 97.27 262.321 96.3178 261.507 95.5366C260.71 94.7553 259.725 94.3647 258.553 94.3647H255.159V105.107C255.159 105.758 255.363 106.246 255.77 106.572C256.193 106.897 256.681 107.117 257.235 107.231C257.788 107.329 258.488 107.41 259.334 107.475C259.692 107.508 259.928 107.581 260.042 107.695C260.156 107.792 260.213 108.02 260.213 108.378C260.213 108.623 260.132 108.891 259.969 109.184C259.823 109.477 259.627 109.624 259.383 109.624H244.759ZM258.87 92.2651C261.068 92.2651 262.793 91.6954 264.046 90.5561C265.299 89.4005 265.926 87.4637 265.926 84.7456C265.926 82.1414 265.308 80.2208 264.071 78.9839C262.85 77.7306 261.043 77.104 258.651 77.104H255.184L255.159 92.2651H258.87Z" fill="#2F3F6D"/>
<path d="M283.138 109.624C282.894 109.624 282.69 109.477 282.528 109.184C282.381 108.891 282.308 108.623 282.308 108.378C282.308 108.102 282.365 107.89 282.479 107.744C282.593 107.597 282.804 107.508 283.114 107.475C284.025 107.41 284.831 107.231 285.531 106.938C286.23 106.629 286.58 106.23 286.58 105.742V79.4966C286.58 78.8455 286.401 78.3572 286.043 78.0317C285.701 77.7062 285.295 77.4946 284.823 77.3969C284.367 77.283 283.74 77.1935 282.943 77.1284C282.585 77.0958 282.349 77.0307 282.235 76.9331C282.121 76.8191 282.064 76.5831 282.064 76.2251C282.064 75.9809 282.137 75.7124 282.283 75.4194C282.446 75.1264 282.65 74.9799 282.894 74.9799H298.226C298.47 74.9799 298.665 75.1264 298.812 75.4194C298.975 75.7124 299.056 75.9809 299.056 76.2251C299.056 76.8273 298.787 77.1284 298.25 77.1284C295.272 77.1284 293.782 77.8934 293.782 79.4233L293.758 105.302C293.758 106.035 293.962 106.531 294.368 106.791C294.792 107.036 295.361 107.158 296.077 107.158H302.84C303.556 107.158 304.281 106.735 305.013 105.888C305.762 105.042 306.453 103.992 307.088 102.739C307.723 101.469 308.252 100.183 308.675 98.8813C308.756 98.6209 308.976 98.4256 309.334 98.2954C309.692 98.1489 310.034 98.0757 310.36 98.0757C310.701 98.0757 311.003 98.1489 311.263 98.2954C311.523 98.4419 311.637 98.6453 311.605 98.9057L310.238 109.624H283.138Z" fill="#2F3F6D"/>
<path d="M348.616 107.475C348.975 107.508 349.211 107.581 349.324 107.695C349.438 107.792 349.495 108.02 349.495 108.378C349.495 108.623 349.414 108.891 349.251 109.184C349.105 109.477 348.909 109.624 348.665 109.624H334.481C334.237 109.624 334.033 109.477 333.87 109.184C333.724 108.891 333.651 108.623 333.651 108.378C333.651 108.102 333.708 107.89 333.822 107.744C333.935 107.597 334.147 107.508 334.456 107.475L335.433 107.426C336.247 107.41 336.816 107.369 337.142 107.304C337.467 107.223 337.63 107.044 337.63 106.767C337.63 106.669 337.606 106.547 337.557 106.401L334.53 97.8315H322.835L319.832 106.401C319.783 106.515 319.759 106.621 319.759 106.718C319.759 107.011 319.962 107.198 320.369 107.28C320.776 107.361 321.427 107.41 322.323 107.426L323.348 107.475C323.657 107.508 323.869 107.597 323.983 107.744C324.097 107.89 324.154 108.102 324.154 108.378C324.154 108.623 324.072 108.891 323.909 109.184C323.763 109.477 323.568 109.624 323.323 109.624H312.996C312.736 109.624 312.532 109.501 312.386 109.257C312.24 109.013 312.166 108.72 312.166 108.378C312.166 108.02 312.223 107.792 312.337 107.695C312.451 107.581 312.687 107.508 313.045 107.475C313.175 107.459 313.387 107.451 313.68 107.451C314.201 107.434 314.632 107.394 314.974 107.329C315.316 107.247 315.649 107.076 315.975 106.816C316.3 106.539 316.569 106.132 316.781 105.595L328.304 74.4428H333.431L344.783 105.595C344.979 106.149 345.239 106.564 345.565 106.84C345.906 107.101 346.256 107.263 346.615 107.329C346.989 107.394 347.428 107.434 347.933 107.451C348.242 107.451 348.47 107.459 348.616 107.475ZM329.11 80.5952L323.543 95.7319H333.822L329.11 80.5952Z" fill="#2F3F6D"/>
<path d="M352.425 109.624C352.181 109.624 351.977 109.477 351.815 109.184C351.668 108.891 351.595 108.623 351.595 108.378C351.595 108.102 351.652 107.89 351.766 107.744C351.88 107.597 352.091 107.508 352.401 107.475C353.361 107.394 354.167 107.239 354.818 107.011C355.469 106.767 355.794 106.401 355.794 105.913L355.819 79.4966C355.819 78.8455 355.648 78.3572 355.306 78.0317C354.964 77.7062 354.582 77.5027 354.158 77.4214C353.735 77.3237 353.133 77.226 352.352 77.1284C351.994 77.0958 351.758 77.0307 351.644 76.9331C351.53 76.8191 351.473 76.5831 351.473 76.2251C351.473 75.9809 351.546 75.7124 351.693 75.4194C351.855 75.1264 352.059 74.9799 352.303 74.9799L354.989 74.9555C355.412 74.9393 356.055 74.9311 356.917 74.9311C357.975 74.9311 359.578 74.8986 361.727 74.8335C364.071 74.7684 365.999 74.7358 367.513 74.7358C371.745 74.7521 375.032 75.5089 377.376 77.0063C379.72 78.4874 380.892 80.8149 380.892 83.9887C380.892 86.7719 380.135 88.896 378.621 90.3608C377.108 91.8257 375 92.9161 372.298 93.6323C373.747 93.7788 374.927 94.1775 375.838 94.8286C376.766 95.4796 377.482 96.2446 377.987 97.1235C378.507 97.9861 379.085 99.1661 379.72 100.664C380.143 101.64 380.477 102.405 380.721 102.958C380.981 103.496 381.282 104.041 381.624 104.594C382.129 105.587 382.666 106.295 383.236 106.718C383.822 107.141 384.448 107.386 385.115 107.451C385.457 107.483 385.685 107.573 385.799 107.719C385.929 107.866 385.994 108.126 385.994 108.5C385.994 108.728 385.913 108.972 385.75 109.233C385.604 109.493 385.408 109.624 385.164 109.624H377.449C376.668 109.624 376.001 109.322 375.448 108.72C374.894 108.118 374.43 107.369 374.056 106.474C373.682 105.563 373.242 104.334 372.738 102.788C372.135 100.965 371.59 99.4998 371.102 98.393C370.63 97.27 369.987 96.3178 369.173 95.5366C368.376 94.7553 367.391 94.3647 366.219 94.3647H362.825V105.107C362.825 105.758 363.029 106.246 363.436 106.572C363.859 106.897 364.347 107.117 364.901 107.231C365.454 107.329 366.154 107.41 367 107.475C367.358 107.508 367.594 107.581 367.708 107.695C367.822 107.792 367.879 108.02 367.879 108.378C367.879 108.623 367.798 108.891 367.635 109.184C367.489 109.477 367.293 109.624 367.049 109.624H352.425ZM366.536 92.2651C368.734 92.2651 370.459 91.6954 371.712 90.5561C372.965 89.4005 373.592 87.4637 373.592 84.7456C373.592 82.1414 372.974 80.2208 371.737 78.9839C370.516 77.7306 368.709 77.104 366.317 77.104H362.85L362.825 92.2651H366.536Z" fill="#2F3F6D"/>
<path d="M146.71 32.1356C143.894 30.052 144.286 22.3907 145.852 15.8457C150.773 4.39685 159.727 0.811686 180.345 0.419556C181.624 9.57151 180.017 18.5314 172.609 28.5432C167.303 34.6234 151.336 37.3342 146.71 32.1356Z" fill="#C19B1A"/>
<path d="M119.008 47.361C115.505 47.361 111.263 40.9696 108.629 34.7765C105.775 22.646 110.84 14.4385 127.181 1.85909C133.653 8.45501 137.691 16.6132 137.691 29.068C137.042 37.1117 125.82 48.7881 119.008 47.361Z" fill="#C19B1A"/>
<path d="M162.429 62.2643H134.947C131.849 60.5313 129.592 58.3541 129.187 55.9772C127.904 52.718 133.559 46.7896 138.356 42.0695C151.809 36.611 163.211 38.2102 178.37 47.5082C175.507 53.9243 169.998 58.4549 162.429 62.2643Z" fill="#C19B1A"/>
<path d="M60.2151 62.2643C62.3494 60.3474 64.7897 58.3456 67.5524 56.2189C69.3863 58.0879 71.0247 60.0823 72.4313 62.2643H60.2151Z" fill="#C19B1A"/>
<path d="M48.2487 123.658H78.0367C81.3109 125.01 84.7205 126.793 88.3449 129.016C84.58 137.455 76.2355 142.633 64.6473 147.197C56.9256 149.542 40.3312 144.346 39.1627 137.485C37.8862 134.245 43.4696 128.365 48.2487 123.658Z" fill="#C19B1A"/>
<path d="M6.77795 165.678L0.76062 157.655L24.3216 136.108C31.017 135.131 32.2405 136.947 32.3446 142.126L6.77795 165.678Z" fill="#C19B1A"/>
<path d="M78.8984 62.2643C78.8705 62.1996 78.8428 62.1348 78.8153 62.0701C75.9611 49.9396 81.0257 41.7321 97.3665 29.1527C103.839 35.7486 107.876 43.9069 107.876 56.3616C107.728 58.2055 107.023 60.2403 105.944 62.2643H78.8984Z" fill="#C19B1A"/>
<path d="M29.566 128.787C27.5424 128.787 25.272 126.654 23.2075 123.658H40.7422C37.1025 127.148 32.8283 129.47 29.566 128.787Z" fill="#C19B1A"/>
<path d="M124.018 151.16C123.871 151.16 123.749 151.072 123.652 150.896C123.564 150.72 123.52 150.559 123.52 150.413C123.52 150.247 123.554 150.12 123.622 150.032C123.691 149.944 123.818 149.89 124.003 149.871C124.892 149.822 125.615 149.705 126.171 149.519C126.738 149.324 127.021 148.982 127.021 148.494V131.824H123.359C122.851 131.824 122.431 132.122 122.099 132.717C121.777 133.303 121.537 133.958 121.381 134.68C121.235 135.403 121.142 136.018 121.103 136.526C121.083 136.692 120.986 136.814 120.81 136.892C120.644 136.97 120.463 137.009 120.268 137.009C120.121 137.009 119.96 136.966 119.784 136.878C119.609 136.78 119.521 136.658 119.521 136.511C119.57 135.047 119.628 133.66 119.697 132.351C119.775 131.033 119.863 130.374 119.96 130.374H138.813C138.91 130.374 138.993 131.033 139.062 132.351C139.14 133.66 139.203 135.047 139.252 136.511C139.252 136.658 139.164 136.78 138.989 136.878C138.813 136.966 138.652 137.009 138.505 137.009C138.31 137.009 138.124 136.97 137.948 136.892C137.782 136.814 137.69 136.692 137.67 136.526C137.553 135.471 137.328 134.426 136.996 133.391C136.664 132.346 136.137 131.824 135.414 131.824H131.943V148.45C131.943 148.841 132.094 149.133 132.397 149.329C132.699 149.524 133.046 149.656 133.437 149.724C133.827 149.783 134.316 149.832 134.902 149.871C135.116 149.89 135.258 149.934 135.326 150.003C135.395 150.061 135.429 150.198 135.429 150.413C135.429 150.559 135.38 150.72 135.282 150.896C135.195 151.072 135.077 151.16 134.931 151.16H124.018Z" fill="#C19B1A"/>
<path d="M141.083 147.615C141.083 146.414 141.542 145.452 142.46 144.729C143.388 144.007 144.511 143.484 145.829 143.162C147.157 142.83 148.656 142.576 150.326 142.4V139.983C150.326 139.114 150.141 138.518 149.77 138.196C149.408 137.864 148.866 137.698 148.144 137.698C147.304 137.698 146.747 137.781 146.474 137.947L144.145 141.858C143.451 141.858 142.88 141.668 142.431 141.287C141.991 140.896 141.772 140.398 141.772 139.793C141.772 139.011 142.143 138.362 142.885 137.844C143.637 137.317 144.55 136.931 145.624 136.687C146.708 136.433 147.758 136.306 148.774 136.306C150.219 136.306 151.415 136.482 152.363 136.834C153.31 137.175 154.008 137.654 154.457 138.269C154.906 138.875 155.131 139.578 155.131 140.379V148.259C155.131 148.64 155.185 148.963 155.292 149.226C155.4 149.48 155.531 149.607 155.688 149.607C155.805 149.607 156.073 149.563 156.493 149.475L156.874 149.417C157.031 149.417 157.143 149.505 157.211 149.68C157.28 149.846 157.314 150.037 157.314 150.252C157.314 150.379 157.284 150.466 157.226 150.515C157.07 150.623 156.786 150.755 156.376 150.911C155.976 151.067 155.463 151.209 154.838 151.336C154.223 151.463 153.554 151.526 152.831 151.526C152.099 151.526 151.567 151.399 151.235 151.145C150.903 150.891 150.712 150.647 150.663 150.413C150.624 150.178 150.605 149.895 150.605 149.563V149.519C149.98 150.174 149.223 150.672 148.334 151.013C147.455 151.345 146.493 151.511 145.448 151.511C144.794 151.511 144.13 151.375 143.456 151.101C142.782 150.828 142.216 150.398 141.757 149.812C141.308 149.226 141.083 148.494 141.083 147.615ZM146.049 147.468C146.049 147.996 146.215 148.45 146.547 148.831C146.889 149.212 147.363 149.402 147.968 149.402C148.935 149.402 149.721 149.031 150.326 148.289V143.572C149.496 143.699 148.779 143.875 148.173 144.099C147.577 144.324 147.074 144.705 146.664 145.242C146.254 145.779 146.049 146.521 146.049 147.468Z" fill="#C19B1A"/>
<path d="M159.028 151.16C158.871 151.16 158.749 151.096 158.661 150.969C158.573 150.833 158.53 150.696 158.53 150.559C158.53 150.393 158.564 150.266 158.632 150.178C158.7 150.091 158.827 150.037 159.013 150.017C159.491 149.978 159.892 149.9 160.214 149.783C160.546 149.656 160.712 149.47 160.712 149.226V139.763C160.712 139.304 160.629 138.953 160.463 138.709C160.297 138.465 160.102 138.303 159.877 138.225C159.653 138.147 159.36 138.079 158.998 138.02C158.949 138.01 158.876 138.001 158.779 137.991C158.681 137.971 158.598 137.952 158.53 137.932C158.412 137.883 158.324 137.815 158.266 137.727C158.207 137.639 158.178 137.512 158.178 137.346C158.178 137.21 158.212 137.073 158.281 136.936C158.349 136.79 158.432 136.712 158.53 136.702C160.297 136.633 162.221 136.585 164.301 136.555H164.726C164.823 136.555 164.916 136.599 165.004 136.687C165.092 136.775 165.146 136.926 165.165 137.141V140.115C165.448 139.48 165.854 138.875 166.381 138.299C166.918 137.713 167.538 137.234 168.241 136.863C168.945 136.492 169.672 136.306 170.424 136.306C171.264 136.306 171.884 136.565 172.284 137.083C172.685 137.591 172.885 138.22 172.885 138.972C172.885 139.451 172.773 139.905 172.548 140.335C172.323 140.764 172.04 141.111 171.698 141.375C171.366 141.629 171.044 141.756 170.732 141.756L168.593 138.958C167.948 138.958 167.333 139.28 166.747 139.924C166.161 140.559 165.693 141.316 165.341 142.195V148.743C165.341 149.065 165.448 149.309 165.663 149.475C165.888 149.641 166.156 149.758 166.469 149.827C166.781 149.885 167.187 149.939 167.685 149.988L167.992 150.017C168.207 150.037 168.349 150.081 168.417 150.149C168.486 150.208 168.52 150.344 168.52 150.559C168.52 150.696 168.476 150.833 168.388 150.969C168.3 151.096 168.178 151.16 168.022 151.16H159.028Z" fill="#C19B1A"/>
<path d="M174.701 151.16C174.545 151.16 174.423 151.096 174.335 150.969C174.247 150.833 174.203 150.696 174.203 150.559C174.203 150.393 174.238 150.266 174.306 150.178C174.384 150.081 174.511 150.027 174.687 150.017C175.146 149.978 175.541 149.9 175.873 149.783C176.205 149.656 176.371 149.47 176.371 149.226L176.386 139.763C176.386 139.314 176.303 138.972 176.137 138.738C175.981 138.504 175.79 138.347 175.566 138.269C175.351 138.191 175.068 138.128 174.716 138.079C174.413 138.03 174.242 138.001 174.203 137.991C174.086 137.942 173.998 137.874 173.94 137.786C173.881 137.698 173.852 137.571 173.852 137.405C173.852 137.268 173.881 137.132 173.94 136.995C174.008 136.848 174.096 136.77 174.203 136.76C176.371 136.624 178.495 136.555 180.575 136.555C180.683 136.555 180.781 136.604 180.868 136.702C180.966 136.79 181.015 136.936 181.015 137.141V148.743C181.015 149.085 181.103 149.348 181.279 149.534C181.464 149.71 181.674 149.827 181.908 149.885C182.143 149.934 182.441 149.978 182.802 150.017C183.017 150.037 183.158 150.081 183.227 150.149C183.295 150.208 183.329 150.344 183.329 150.559C183.329 150.686 183.281 150.818 183.183 150.955C183.095 151.091 182.978 151.16 182.831 151.16H174.701Z" fill="#C19B1A"/>
<path d="M185.395 151.16C185.239 151.16 185.116 151.096 185.029 150.969C184.941 150.833 184.897 150.696 184.897 150.559C184.897 150.393 184.931 150.266 184.999 150.178C185.068 150.091 185.195 150.037 185.38 150.017C185.82 149.978 186.186 149.9 186.479 149.783C186.781 149.656 186.933 149.47 186.933 149.226V139.763C186.933 139.314 186.85 138.972 186.684 138.738C186.518 138.504 186.323 138.347 186.098 138.269C185.883 138.191 185.6 138.128 185.248 138.079C184.965 138.04 184.799 138.01 184.75 137.991C184.633 137.942 184.545 137.874 184.487 137.786C184.428 137.698 184.399 137.571 184.399 137.405C184.399 137.268 184.428 137.132 184.487 136.995C184.555 136.848 184.643 136.77 184.75 136.76C187.475 136.643 189.55 136.575 190.976 136.555C191.073 136.555 191.166 136.599 191.254 136.687C191.342 136.775 191.396 136.926 191.415 137.141V138.782C191.669 138.508 192.104 138.176 192.719 137.786C193.344 137.395 194.081 137.053 194.931 136.76C195.781 136.458 196.645 136.306 197.524 136.306C198.451 136.306 199.242 136.472 199.897 136.804C200.551 137.136 201.03 137.722 201.332 138.562C202.074 138.006 202.988 137.493 204.072 137.024C205.165 136.546 206.371 136.306 207.69 136.306C208.5 136.306 209.194 136.428 209.77 136.673C210.346 136.907 210.805 137.346 211.147 137.991C211.498 138.626 211.674 139.519 211.674 140.672V148.743C211.674 149.231 211.811 149.553 212.084 149.71C212.367 149.856 212.656 149.944 212.948 149.973C213.251 149.993 213.447 150.008 213.534 150.017C213.71 150.037 213.832 150.086 213.901 150.164C213.979 150.232 214.018 150.364 214.018 150.559C214.018 150.696 213.974 150.833 213.886 150.969C213.798 151.096 213.676 151.16 213.52 151.16H205.654C205.497 151.16 205.375 151.096 205.287 150.969C205.199 150.833 205.156 150.696 205.156 150.559C205.156 150.393 205.185 150.266 205.243 150.178C205.312 150.091 205.434 150.037 205.61 150.017C205.961 149.988 206.283 149.905 206.576 149.768C206.869 149.622 207.016 149.441 207.016 149.226V140.745C207.016 140.364 206.987 140.022 206.928 139.719C206.869 139.417 206.708 139.143 206.445 138.899C206.191 138.655 205.8 138.533 205.273 138.533C204.062 138.533 202.841 139.036 201.611 140.042C201.63 140.315 201.64 140.525 201.64 140.672V148.743C201.64 149.241 201.752 149.563 201.977 149.71C202.201 149.856 202.446 149.944 202.709 149.973C202.983 149.993 203.158 150.008 203.237 150.017C203.412 150.037 203.534 150.086 203.603 150.164C203.681 150.232 203.72 150.364 203.72 150.559C203.72 150.696 203.676 150.833 203.588 150.969C203.5 151.096 203.378 151.16 203.222 151.16H195.649C195.492 151.16 195.37 151.096 195.282 150.969C195.195 150.833 195.151 150.696 195.151 150.559C195.151 150.393 195.18 150.266 195.239 150.178C195.307 150.091 195.429 150.037 195.605 150.017C195.966 149.988 196.308 149.905 196.63 149.768C196.962 149.622 197.128 149.441 197.128 149.226V140.745C197.128 140.178 197.006 139.671 196.762 139.221C196.518 138.762 196.015 138.533 195.253 138.533C194.726 138.533 194.252 138.611 193.832 138.767C193.422 138.924 193.075 139.109 192.792 139.324C192.509 139.529 192.182 139.798 191.811 140.13C191.762 140.188 191.679 140.266 191.562 140.364V148.743C191.562 149.094 191.63 149.363 191.767 149.549C191.904 149.724 192.074 149.841 192.28 149.9C192.485 149.949 192.743 149.988 193.056 150.017C193.271 150.037 193.412 150.081 193.481 150.149C193.549 150.208 193.583 150.344 193.583 150.559C193.583 150.686 193.534 150.818 193.437 150.955C193.349 151.091 193.232 151.16 193.085 151.16H185.395Z" fill="#C19B1A"/>
<path d="M244.223 149.871C244.438 149.89 244.579 149.934 244.648 150.003C244.716 150.061 244.75 150.198 244.75 150.413C244.75 150.559 244.701 150.72 244.604 150.896C244.516 151.072 244.399 151.16 244.252 151.16H235.141C234.994 151.16 234.872 151.072 234.775 150.896C234.687 150.72 234.643 150.559 234.643 150.413C234.643 150.247 234.677 150.12 234.745 150.032C234.814 149.944 234.941 149.89 235.126 149.871L235.712 149.841C236.191 149.832 236.523 149.807 236.708 149.768C236.894 149.719 236.987 149.617 236.987 149.461C236.987 149.392 236.972 149.314 236.943 149.226L235.112 144.173L228.095 144.158L226.279 149.226C226.249 149.295 226.235 149.358 226.235 149.417C226.235 149.592 226.357 149.705 226.601 149.754C226.845 149.802 227.236 149.832 227.773 149.841L228.388 149.871C228.573 149.89 228.7 149.944 228.769 150.032C228.837 150.12 228.871 150.247 228.871 150.413C228.871 150.559 228.823 150.72 228.725 150.896C228.637 151.072 228.52 151.16 228.373 151.16H222.177C222.021 151.16 221.899 151.087 221.811 150.94C221.723 150.794 221.679 150.618 221.679 150.413C221.679 150.198 221.713 150.061 221.781 150.003C221.85 149.934 221.991 149.89 222.206 149.871C222.284 149.861 222.411 149.856 222.587 149.856C222.89 149.846 223.144 149.822 223.349 149.783C223.564 149.734 223.769 149.632 223.964 149.475C224.159 149.309 224.321 149.065 224.448 148.743L231.479 130.051H234.906L241.865 148.743C241.991 149.075 242.157 149.324 242.363 149.49C242.568 149.646 242.778 149.744 242.992 149.783C243.207 149.822 243.476 149.846 243.798 149.856C243.993 149.856 244.135 149.861 244.223 149.871ZM231.918 133.728L228.505 142.913H234.672L231.918 133.728Z" fill="#C19B1A"/>
<path d="M245.79 151.16C245.634 151.16 245.512 151.096 245.424 150.969C245.336 150.833 245.292 150.696 245.292 150.559C245.292 150.393 245.326 150.266 245.395 150.178C245.473 150.081 245.6 150.027 245.776 150.017C246.235 149.978 246.63 149.9 246.962 149.783C247.294 149.656 247.46 149.47 247.46 149.226L247.475 131.707C247.475 131.248 247.382 130.901 247.197 130.667C247.011 130.432 246.791 130.276 246.537 130.198C246.283 130.12 245.956 130.056 245.556 130.008C245.224 129.959 245.038 129.929 244.999 129.92C244.882 129.871 244.794 129.802 244.736 129.715C244.677 129.627 244.648 129.5 244.648 129.334C244.648 129.197 244.682 129.06 244.75 128.924C244.819 128.777 244.902 128.699 244.999 128.689C247.109 128.552 249.281 128.484 251.518 128.484C251.625 128.484 251.723 128.533 251.811 128.631C251.908 128.718 251.957 128.865 251.957 129.07V148.743C251.957 149.085 252.045 149.348 252.221 149.534C252.406 149.71 252.616 149.827 252.851 149.885C253.085 149.934 253.383 149.978 253.744 150.017C253.959 150.037 254.101 150.081 254.169 150.149C254.238 150.208 254.272 150.344 254.272 150.559C254.272 150.696 254.228 150.833 254.14 150.969C254.052 151.096 253.93 151.16 253.774 151.16H245.79Z" fill="#C19B1A"/>
<path d="M264.35 151.585C261.508 151.585 259.399 150.916 258.022 149.578C256.645 148.24 255.956 146.316 255.956 143.806C255.956 142.234 256.323 140.882 257.055 139.749C257.797 138.616 258.788 137.761 260.029 137.185C261.269 136.599 262.631 136.306 264.115 136.306C266.283 136.306 267.9 136.731 268.964 137.581C270.029 138.421 270.698 139.656 270.971 141.287C271.059 141.814 271.103 142.62 271.103 143.704L260.937 143.718C260.937 145.134 261.156 146.282 261.596 147.161C262.045 148.04 262.612 148.67 263.295 149.05C263.979 149.431 264.701 149.622 265.463 149.622C266.362 149.622 267.114 149.505 267.719 149.27C268.334 149.036 268.871 148.65 269.33 148.113C269.34 148.103 269.365 148.074 269.404 148.025C269.452 147.966 269.501 147.927 269.55 147.908C269.599 147.888 269.653 147.883 269.711 147.893L270.356 148.201C270.453 148.24 270.502 148.299 270.502 148.377C270.502 148.435 270.473 148.518 270.414 148.626C269.887 149.544 269.115 150.266 268.1 150.794C267.084 151.321 265.834 151.585 264.35 151.585ZM266.225 142.356C266.225 140.667 266.054 139.446 265.712 138.694C265.37 137.932 264.823 137.551 264.072 137.551C263.281 137.551 262.597 137.947 262.021 138.738C261.454 139.519 261.108 140.725 260.981 142.356H266.225Z" fill="#C19B1A"/>
<path d="M279.321 151.599C277.914 151.599 276.791 151.326 275.951 150.779C275.121 150.232 274.706 149.27 274.706 147.893V138.196H273.139C273.041 138.186 272.958 138.113 272.89 137.976C272.822 137.83 272.787 137.688 272.787 137.551C272.787 137.376 272.817 137.229 272.875 137.112C272.944 136.995 273.036 136.917 273.154 136.878L274.985 136.336C275.209 136.287 275.463 136.091 275.746 135.75C276.039 135.398 276.313 134.949 276.567 134.402C276.821 133.845 277.021 133.24 277.167 132.586C277.255 132.205 277.631 132.014 278.295 132.014C279.037 132.014 279.408 132.18 279.408 132.512V136.599H282.646C282.753 136.609 282.836 136.663 282.895 136.76C282.963 136.858 282.997 136.97 282.997 137.097C282.997 137.4 282.948 137.654 282.851 137.859C282.763 138.064 282.665 138.167 282.558 138.167H279.408V146.59C279.408 147.42 279.448 148.054 279.526 148.494C279.614 148.924 279.75 149.221 279.936 149.387C280.131 149.544 280.409 149.622 280.771 149.622C281.093 149.622 281.474 149.558 281.913 149.431C282.353 149.304 282.758 149.148 283.129 148.963C283.188 148.933 283.271 148.992 283.378 149.138C283.486 149.285 283.569 149.446 283.627 149.622C283.686 149.788 283.686 149.89 283.627 149.929C283.383 150.193 283.002 150.457 282.485 150.72C281.977 150.974 281.43 151.184 280.844 151.35C280.268 151.516 279.76 151.599 279.321 151.599Z" fill="#C19B1A"/>
<path d="M285.224 151.16C285.068 151.16 284.946 151.096 284.858 150.969C284.77 150.833 284.726 150.696 284.726 150.559C284.726 150.393 284.76 150.266 284.828 150.178C284.906 150.081 285.033 150.027 285.209 150.017C285.668 149.978 286.064 149.9 286.396 149.783C286.728 149.656 286.894 149.47 286.894 149.226L286.908 131.707C286.908 131.248 286.816 130.901 286.63 130.667C286.445 130.432 286.225 130.276 285.971 130.198C285.717 130.12 285.39 130.056 284.99 130.008C284.657 129.959 284.472 129.929 284.433 129.92C284.316 129.871 284.228 129.802 284.169 129.715C284.111 129.627 284.081 129.5 284.081 129.334C284.081 129.197 284.115 129.06 284.184 128.924C284.252 128.777 284.335 128.699 284.433 128.689C286.542 128.552 288.715 128.484 290.951 128.484C291.059 128.484 291.156 128.533 291.244 128.631C291.342 128.718 291.391 128.865 291.391 129.07V148.743C291.391 149.085 291.479 149.348 291.655 149.534C291.84 149.71 292.05 149.827 292.284 149.885C292.519 149.934 292.817 149.978 293.178 150.017C293.393 150.037 293.534 150.081 293.603 150.149C293.671 150.208 293.705 150.344 293.705 150.559C293.705 150.696 293.661 150.833 293.573 150.969C293.486 151.096 293.364 151.16 293.207 151.16H285.224Z" fill="#C19B1A"/>
<path d="M303.783 151.585C300.942 151.585 298.832 150.916 297.455 149.578C296.078 148.24 295.39 146.316 295.39 143.806C295.39 142.234 295.756 140.882 296.489 139.749C297.231 138.616 298.222 137.761 299.462 137.185C300.702 136.599 302.065 136.306 303.549 136.306C305.717 136.306 307.333 136.731 308.398 137.581C309.462 138.421 310.131 139.656 310.405 141.287C310.492 141.814 310.536 142.62 310.536 143.704L300.37 143.718C300.37 145.134 300.59 146.282 301.03 147.161C301.479 148.04 302.045 148.67 302.729 149.05C303.412 149.431 304.135 149.622 304.897 149.622C305.795 149.622 306.547 149.505 307.153 149.27C307.768 149.036 308.305 148.65 308.764 148.113C308.774 148.103 308.798 148.074 308.837 148.025C308.886 147.966 308.935 147.927 308.984 147.908C309.032 147.888 309.086 147.883 309.145 147.893L309.789 148.201C309.887 148.24 309.936 148.299 309.936 148.377C309.936 148.435 309.906 148.518 309.848 148.626C309.321 149.544 308.549 150.266 307.533 150.794C306.518 151.321 305.268 151.585 303.783 151.585ZM305.658 142.356C305.658 140.667 305.488 139.446 305.146 138.694C304.804 137.932 304.257 137.551 303.505 137.551C302.714 137.551 302.031 137.947 301.454 138.738C300.888 139.519 300.541 140.725 300.414 142.356H305.658Z" fill="#C19B1A"/>
<path d="M313.041 151.16C312.885 151.16 312.763 151.096 312.675 150.969C312.587 150.833 312.543 150.696 312.543 150.559C312.543 150.393 312.577 150.266 312.646 150.178C312.714 150.091 312.841 150.037 313.027 150.017C313.505 149.978 313.906 149.9 314.228 149.783C314.56 149.656 314.726 149.47 314.726 149.226V139.763C314.726 139.304 314.643 138.953 314.477 138.709C314.311 138.465 314.115 138.303 313.891 138.225C313.666 138.147 313.373 138.079 313.012 138.02C312.963 138.01 312.89 138.001 312.792 137.991C312.695 137.971 312.612 137.952 312.543 137.932C312.426 137.883 312.338 137.815 312.28 137.727C312.221 137.639 312.192 137.512 312.192 137.346C312.192 137.21 312.226 137.073 312.294 136.936C312.363 136.79 312.446 136.712 312.543 136.702C314.311 136.633 316.235 136.585 318.315 136.555H318.74C318.837 136.555 318.93 136.599 319.018 136.687C319.106 136.775 319.159 136.926 319.179 137.141V140.115C319.462 139.48 319.867 138.875 320.395 138.299C320.932 137.713 321.552 137.234 322.255 136.863C322.958 136.492 323.686 136.306 324.438 136.306C325.278 136.306 325.898 136.565 326.298 137.083C326.698 137.591 326.899 138.22 326.899 138.972C326.899 139.451 326.786 139.905 326.562 140.335C326.337 140.764 326.054 141.111 325.712 141.375C325.38 141.629 325.058 141.756 324.745 141.756L322.607 138.958C321.962 138.958 321.347 139.28 320.761 139.924C320.175 140.559 319.706 141.316 319.355 142.195V148.743C319.355 149.065 319.462 149.309 319.677 149.475C319.902 149.641 320.17 149.758 320.483 149.827C320.795 149.885 321.2 149.939 321.698 149.988L322.006 150.017C322.221 150.037 322.363 150.081 322.431 150.149C322.499 150.208 322.533 150.344 322.533 150.559C322.533 150.696 322.49 150.833 322.402 150.969C322.314 151.096 322.192 151.16 322.035 151.16H313.041Z" fill="#C19B1A"/>
<path d="M328.715 151.16C328.559 151.16 328.437 151.096 328.349 150.969C328.261 150.833 328.217 150.696 328.217 150.559C328.217 150.393 328.251 150.266 328.32 150.178C328.398 150.081 328.525 150.027 328.7 150.017C329.159 149.978 329.555 149.9 329.887 149.783C330.219 149.656 330.385 149.47 330.385 149.226L330.4 139.763C330.4 139.314 330.317 138.972 330.151 138.738C329.994 138.504 329.804 138.347 329.579 138.269C329.365 138.191 329.081 138.128 328.73 138.079C328.427 138.03 328.256 138.001 328.217 137.991C328.1 137.942 328.012 137.874 327.953 137.786C327.895 137.698 327.865 137.571 327.865 137.405C327.865 137.268 327.895 137.132 327.953 136.995C328.022 136.848 328.11 136.77 328.217 136.76C330.385 136.624 332.509 136.555 334.589 136.555C334.697 136.555 334.794 136.604 334.882 136.702C334.98 136.79 335.029 136.936 335.029 137.141V148.743C335.029 149.085 335.116 149.348 335.292 149.534C335.478 149.71 335.688 149.827 335.922 149.885C336.156 149.934 336.454 149.978 336.816 150.017C337.031 150.037 337.172 150.081 337.24 150.149C337.309 150.208 337.343 150.344 337.343 150.559C337.343 150.686 337.294 150.818 337.197 150.955C337.109 151.091 336.991 151.16 336.845 151.16H328.715ZM332.612 134.021C332.104 134.021 331.64 133.909 331.22 133.684C330.8 133.45 330.468 133.133 330.224 132.732C329.98 132.322 329.858 131.858 329.858 131.341C329.858 130.823 329.98 130.359 330.224 129.949C330.468 129.539 330.8 129.221 331.22 128.997C331.64 128.762 332.104 128.645 332.612 128.645C333.11 128.645 333.569 128.762 333.989 128.997C334.408 129.221 334.74 129.539 334.985 129.949C335.239 130.359 335.365 130.823 335.365 131.341C335.365 131.858 335.239 132.322 334.985 132.732C334.74 133.133 334.408 133.45 333.989 133.684C333.569 133.909 333.11 134.021 332.612 134.021Z" fill="#C19B1A"/>
</svg>
