<svg width="361" height="166" viewBox="0 0 361 166" fill="none" xmlns="http://www.w3.org/2000/svg">
<path d="M15.4563 114.415C13.804 114.415 12.3713 114.248 11.1584 113.914C9.94556 113.58 9.02271 113.281 8.38989 113.017C7.75708 112.736 7.37915 112.569 7.2561 112.516C6.99243 112.411 6.6936 112.261 6.35962 112.068C6.16626 111.962 5.9729 111.874 5.77954 111.804C5.60376 111.734 5.45435 111.699 5.3313 111.699C5.03247 111.699 4.73364 111.883 4.43481 112.252C3.802 112.973 3.1604 113.333 2.51001 113.333C2.08813 113.333 1.74536 113.219 1.48169 112.991C1.2356 112.745 1.13013 112.437 1.16528 112.068C1.20044 111.716 1.21802 111.312 1.21802 110.855V109.827C1.21802 108.42 1.12134 106.557 0.927979 104.237C0.82251 102.866 0.769775 102.057 0.769775 101.811C0.769775 100.704 1.25317 100.15 2.21997 100.15C2.60669 100.15 2.93188 100.247 3.19556 100.44C3.45923 100.616 3.6438 100.888 3.74927 101.257C4.11841 102.822 4.73364 104.421 5.59497 106.056C6.59692 107.902 7.99438 109.361 9.78735 110.433C11.5803 111.505 13.47 112.041 15.4563 112.041C16.5286 112.041 17.5217 111.857 18.4358 111.488C19.3674 111.119 20.1145 110.539 20.677 109.748C21.2395 108.939 21.512 107.919 21.4944 106.689C21.4768 105.335 21.0637 104.14 20.2551 103.103C19.4641 102.048 18.4973 101.152 17.3547 100.414C16.2122 99.6753 14.7004 98.8139 12.8196 97.8296C12.6438 97.7417 12.4856 97.6626 12.345 97.5923C12.2219 97.5219 12.1077 97.4604 12.0022 97.4077C9.84009 96.2827 8.08228 95.2632 6.72876 94.3491C5.37524 93.4174 4.2063 92.2397 3.22192 90.8159C2.25513 89.3745 1.76294 87.6782 1.74536 85.727C1.72778 83.6001 2.27271 81.7632 3.38013 80.2163C4.48755 78.6518 5.99927 77.4653 7.91528 76.6567C9.8313 75.8481 11.9583 75.4438 14.2961 75.4438C15.6145 75.4438 16.7219 75.5317 17.6184 75.7075C18.5149 75.8833 19.429 76.1206 20.3606 76.4194C21.134 76.6655 21.6614 76.7885 21.9426 76.7885C22.2063 76.7885 22.4084 76.7534 22.5491 76.6831C22.6897 76.6128 22.8303 76.5073 22.9709 76.3667C23.1292 76.226 23.261 76.1206 23.3665 76.0503C23.5598 75.9272 23.8059 75.8657 24.1047 75.8657C24.5266 75.8657 24.9221 75.9712 25.2913 76.1821C25.6604 76.3755 25.845 76.604 25.845 76.8676C25.8625 78.1684 26.0032 80.0141 26.2668 82.4048C26.425 83.7934 26.5042 84.6635 26.5042 85.0151C26.5042 85.5424 26.3547 85.9292 26.0559 86.1753C25.7571 86.4038 25.3879 86.518 24.9485 86.518C24.6321 86.518 24.3596 86.4653 24.1311 86.3598C23.9202 86.2544 23.7708 86.1049 23.6829 85.9116C23.5071 84.9272 23.1204 83.8198 22.5227 82.5893C21.925 81.3413 20.9758 80.2163 19.675 79.2143C18.3918 78.1948 16.7395 77.685 14.718 77.685C12.8547 77.685 11.3254 78.0981 10.1301 78.9243C8.93481 79.7329 8.33716 81.0337 8.33716 82.8266C8.33716 84.0747 8.75903 85.2173 9.60278 86.2544C10.4641 87.2915 11.5012 88.2055 12.7141 88.9966C13.9446 89.77 15.5354 90.6665 17.4866 91.686C19.8069 92.8989 21.7053 93.9975 23.1819 94.9819C24.676 95.9663 25.9504 97.188 27.0051 98.6469C28.0598 100.088 28.5872 101.758 28.5872 103.657C28.5872 105.854 27.9983 107.77 26.8206 109.405C25.6428 111.022 24.052 112.261 22.0481 113.123C20.0618 113.984 17.8645 114.415 15.4563 114.415Z" fill="#2F3F6D"/>
<path d="M67.7161 100.018C67.7161 103.006 67.1536 105.582 66.0286 107.744C64.9211 109.888 63.3127 111.532 61.2034 112.674C59.1116 113.817 56.6067 114.388 53.6887 114.388C48.5559 114.388 44.5569 113.175 41.6917 110.749C38.844 108.324 37.4202 104.562 37.4202 99.4643L37.4465 81.0864C37.4465 80.3833 37.262 79.8559 36.8928 79.5044C36.5237 79.1352 36.0842 78.8979 35.5745 78.7924C35.0823 78.687 34.4583 78.5991 33.7024 78.5288C33.3157 78.4936 33.0608 78.4233 32.9377 78.3178C32.8147 78.1948 32.7532 77.9399 32.7532 77.5532C32.7532 77.2895 32.8323 76.9995 32.9905 76.6831C33.1663 76.3667 33.386 76.2085 33.6497 76.2085H49.259C49.5227 76.2085 49.7336 76.3667 49.8918 76.6831C50.0676 76.9995 50.1555 77.2895 50.1555 77.5532C50.1555 77.852 50.0852 78.0893 49.9446 78.2651C49.8215 78.4233 49.6018 78.5112 49.2854 78.5288C48.1604 78.6167 47.2024 78.7924 46.4114 79.0561C45.6204 79.3022 45.2249 79.6889 45.2249 80.2163L45.1985 99.8071C45.1985 102.69 45.5061 105.019 46.1213 106.794C46.7542 108.57 47.6946 109.871 48.9426 110.697C50.2083 111.505 51.8254 111.91 53.7942 111.91C56.3254 111.91 58.3997 111.382 60.0168 110.328C61.634 109.273 62.803 107.858 63.5237 106.082C64.262 104.307 64.6311 102.303 64.6311 100.071V80.8227C64.6311 80.0669 64.1653 79.5307 63.2336 79.2143C62.302 78.8979 61.2122 78.6694 59.9641 78.5288C59.5774 78.4936 59.3225 78.4233 59.1995 78.3178C59.0764 78.1948 59.0149 77.9399 59.0149 77.5532C59.0149 77.2895 59.094 76.9995 59.2522 76.6831C59.428 76.3667 59.6477 76.2085 59.9114 76.2085H72.1985C72.4622 76.2085 72.6731 76.3667 72.8313 76.6831C73.0071 76.9995 73.095 77.2895 73.095 77.5532C73.095 77.852 73.0247 78.0893 72.884 78.2651C72.761 78.4233 72.5413 78.5112 72.2249 78.5288C70.8362 78.5815 69.7463 78.8364 68.9553 79.2934C68.1643 79.7329 67.7688 80.3657 67.7688 81.1919L67.7161 100.018Z" fill="#2F3F6D"/>
<path d="M76.8918 113.624C76.6282 113.624 76.4084 113.465 76.2327 113.149C76.0745 112.832 75.9954 112.542 75.9954 112.279C75.9954 111.98 76.0569 111.751 76.1799 111.593C76.303 111.435 76.5315 111.338 76.8655 111.303C79.9417 111.057 81.4797 110.319 81.4797 109.088V82.0356C81.4797 81.3325 81.2073 80.7348 80.6624 80.2426C80.135 79.7329 79.5022 79.3374 78.7639 79.0561C78.0256 78.7749 77.3401 78.5991 76.7073 78.5288C76.3206 78.4936 76.0657 78.4233 75.9426 78.3178C75.8196 78.1948 75.7581 77.9399 75.7581 77.5532C75.7581 77.2895 75.8372 76.9995 75.9954 76.6831C76.1711 76.3667 76.3909 76.2085 76.6545 76.2085H88.2034L109.271 102.655H109.587V81.0864C109.587 80.4008 109.323 79.8823 108.796 79.5307C108.286 79.1792 107.777 78.9594 107.267 78.8716C106.757 78.7661 105.94 78.6518 104.815 78.5288C104.428 78.4936 104.173 78.4233 104.05 78.3178C103.927 78.1948 103.865 77.9399 103.865 77.5532C103.865 77.2895 103.945 76.9995 104.103 76.6831C104.279 76.3667 104.498 76.2085 104.762 76.2085H117.102C117.365 76.2085 117.576 76.3667 117.735 76.6831C117.91 76.9995 117.998 77.2895 117.998 77.5532C117.998 77.852 117.937 78.0805 117.814 78.2387C117.691 78.3969 117.462 78.4936 117.128 78.5288C115.827 78.687 114.729 78.9331 113.832 79.2671C112.953 79.5835 112.514 80.1635 112.514 81.0073V110.644C112.514 110.96 112.54 111.294 112.593 111.646L112.672 112.569C112.725 113.202 112.479 113.667 111.934 113.966C111.406 114.265 110.835 114.415 110.22 114.415C109.956 114.415 109.684 114.353 109.403 114.23C109.139 114.124 108.937 113.993 108.796 113.834L85.0393 84.3296H84.5911V108.746C84.5911 109.431 84.8635 109.95 85.4084 110.301C85.9709 110.653 86.5071 110.873 87.0168 110.96C87.5266 111.048 88.3967 111.163 89.6272 111.303C90.0139 111.338 90.2688 111.417 90.3918 111.54C90.5149 111.646 90.5764 111.892 90.5764 112.279C90.5764 112.542 90.4885 112.832 90.3127 113.149C90.1545 113.465 89.9436 113.624 89.6799 113.624H76.8918Z" fill="#2F3F6D"/>
<path d="M140.832 114.415C137.844 114.415 134.803 113.764 131.709 112.463C128.633 111.163 126.031 109.062 123.905 106.162C121.778 103.244 120.714 99.5258 120.714 95.0083C120.714 90.4907 121.769 86.7641 123.878 83.8286C125.988 80.893 128.607 78.7573 131.736 77.4214C134.882 76.0854 138.055 75.4174 141.254 75.4174C144.26 75.4174 146.826 75.6548 148.953 76.1294C151.098 76.604 152.856 77.1401 154.227 77.7378L154.807 85.9116C154.824 86.1928 154.675 86.4389 154.359 86.6499C154.042 86.8608 153.752 86.9663 153.489 86.9663L153.146 86.9926C152.777 86.9926 152.434 86.9311 152.117 86.8081C151.801 86.685 151.616 86.4917 151.564 86.228C150.878 83.7495 149.709 81.7544 148.057 80.2426C146.422 78.7309 144.137 77.9663 141.201 77.9487C139.549 77.9487 137.844 78.4057 136.086 79.3198C134.346 80.2339 132.825 81.9653 131.525 84.5141C130.224 87.0454 129.573 90.5434 129.573 95.0083C129.573 98.9809 130.215 102.233 131.498 104.764C132.799 107.295 134.372 109.124 136.218 110.249C138.064 111.356 139.839 111.91 141.544 111.91C145.693 111.91 147.767 110.758 147.767 108.456V101.6C147.767 100.897 147.521 100.37 147.029 100.018C146.554 99.6665 146.009 99.438 145.394 99.3325C144.779 99.227 143.961 99.1303 142.942 99.0424C142.555 99.0073 142.3 98.937 142.177 98.8315C142.054 98.7085 141.992 98.4536 141.992 98.0669C141.992 97.8032 142.072 97.5132 142.23 97.1967C142.406 96.8803 142.625 96.7221 142.889 96.7221H158.393C158.656 96.7221 158.867 96.8803 159.026 97.1967C159.201 97.5132 159.289 97.8032 159.289 98.0669C159.289 98.3657 159.228 98.5942 159.105 98.7524C158.982 98.9106 158.753 99.0073 158.419 99.0424C157.488 99.1303 156.74 99.3061 156.178 99.5698C155.615 99.8159 155.334 100.203 155.334 100.73L155.413 110.38C155.097 110.837 154.28 111.391 152.961 112.041C151.643 112.674 149.929 113.228 147.82 113.703C145.71 114.177 143.381 114.415 140.832 114.415Z" fill="#2F3F6D"/>
<path d="M197.495 100.018C197.495 103.006 196.933 105.582 195.808 107.744C194.7 109.888 193.092 111.532 190.983 112.674C188.891 113.817 186.386 114.388 183.468 114.388C178.335 114.388 174.336 113.175 171.471 110.749C168.623 108.324 167.199 104.562 167.199 99.4643L167.226 81.0864C167.226 80.3833 167.041 79.8559 166.672 79.5044C166.303 79.1352 165.864 78.8979 165.354 78.7924C164.862 78.687 164.238 78.5991 163.482 78.5288C163.095 78.4936 162.84 78.4233 162.717 78.3178C162.594 78.1948 162.532 77.9399 162.532 77.5532C162.532 77.2895 162.612 76.9995 162.77 76.6831C162.946 76.3667 163.165 76.2085 163.429 76.2085H179.038C179.302 76.2085 179.513 76.3667 179.671 76.6831C179.847 76.9995 179.935 77.2895 179.935 77.5532C179.935 77.852 179.865 78.0893 179.724 78.2651C179.601 78.4233 179.381 78.5112 179.065 78.5288C177.94 78.6167 176.982 78.7924 176.191 79.0561C175.4 79.3022 175.004 79.6889 175.004 80.2163L174.978 99.8071C174.978 102.69 175.285 105.019 175.901 106.794C176.533 108.57 177.474 109.871 178.722 110.697C179.988 111.505 181.605 111.91 183.573 111.91C186.105 111.91 188.179 111.382 189.796 110.328C191.413 109.273 192.582 107.858 193.303 106.082C194.041 104.307 194.41 102.303 194.41 100.071V80.8227C194.41 80.0669 193.945 79.5307 193.013 79.2143C192.081 78.8979 190.991 78.6694 189.743 78.5288C189.357 78.4936 189.102 78.4233 188.979 78.3178C188.856 78.1948 188.794 77.9399 188.794 77.5532C188.794 77.2895 188.873 76.9995 189.031 76.6831C189.207 76.3667 189.427 76.2085 189.691 76.2085H201.978C202.241 76.2085 202.452 76.3667 202.611 76.6831C202.786 76.9995 202.874 77.2895 202.874 77.5532C202.874 77.852 202.804 78.0893 202.663 78.2651C202.54 78.4233 202.321 78.5112 202.004 78.5288C200.615 78.5815 199.526 78.8364 198.735 79.2934C197.944 79.7329 197.548 80.3657 197.548 81.1919L197.495 100.018Z" fill="#2F3F6D"/>
<path d="M208.042 113.624C207.779 113.624 207.559 113.465 207.383 113.149C207.225 112.832 207.146 112.542 207.146 112.279C207.146 111.98 207.207 111.751 207.33 111.593C207.453 111.435 207.682 111.338 208.016 111.303C209.053 111.215 209.923 111.048 210.626 110.802C211.329 110.539 211.681 110.143 211.681 109.616L211.707 81.0864C211.707 80.3833 211.523 79.8559 211.154 79.5044C210.784 79.1528 210.371 78.9331 209.914 78.8452C209.457 78.7397 208.807 78.6342 207.963 78.5288C207.576 78.4936 207.322 78.4233 207.198 78.3178C207.075 78.1948 207.014 77.9399 207.014 77.5532C207.014 77.2895 207.093 76.9995 207.251 76.6831C207.427 76.3667 207.647 76.2085 207.91 76.2085L210.811 76.1821C211.268 76.1645 211.962 76.1557 212.894 76.1557C214.036 76.1557 215.768 76.1206 218.088 76.0503C220.619 75.9799 222.702 75.9448 224.337 75.9448C228.907 75.9624 232.458 76.7798 234.99 78.3969C237.521 79.9966 238.786 82.5102 238.786 85.938C238.786 88.9438 237.969 91.2378 236.334 92.8198C234.699 94.4018 232.423 95.5796 229.505 96.353C231.07 96.5112 232.344 96.9419 233.328 97.645C234.33 98.3481 235.104 99.1743 235.649 100.124C236.211 101.055 236.835 102.33 237.521 103.947C237.978 105.001 238.338 105.828 238.602 106.425C238.883 107.005 239.208 107.594 239.577 108.192C240.122 109.264 240.702 110.029 241.318 110.486C241.95 110.943 242.627 111.207 243.348 111.277C243.717 111.312 243.963 111.409 244.086 111.567C244.227 111.725 244.297 112.006 244.297 112.411C244.297 112.657 244.209 112.92 244.033 113.202C243.875 113.483 243.664 113.624 243.401 113.624H235.069C234.225 113.624 233.504 113.298 232.906 112.648C232.309 111.998 231.808 111.189 231.404 110.222C230.999 109.238 230.525 107.911 229.98 106.241C229.329 104.272 228.74 102.69 228.213 101.495C227.703 100.282 227.009 99.2534 226.13 98.4096C225.269 97.5659 224.205 97.144 222.94 97.144H219.275V108.746C219.275 109.449 219.494 109.976 219.934 110.328C220.391 110.679 220.918 110.916 221.516 111.04C222.114 111.145 222.869 111.233 223.783 111.303C224.17 111.338 224.425 111.417 224.548 111.54C224.671 111.646 224.733 111.892 224.733 112.279C224.733 112.542 224.645 112.832 224.469 113.149C224.311 113.465 224.1 113.624 223.836 113.624H208.042ZM223.282 94.8764C225.656 94.8764 227.519 94.2612 228.872 93.0307C230.226 91.7827 230.903 89.6909 230.903 86.7553C230.903 83.9428 230.235 81.8686 228.899 80.5327C227.58 79.1792 225.629 78.5024 223.045 78.5024H219.301L219.275 94.8764H223.282Z" fill="#2F3F6D"/>
<path d="M249.491 113.624C249.228 113.624 249.008 113.465 248.832 113.149C248.674 112.832 248.595 112.542 248.595 112.279C248.595 111.98 248.656 111.751 248.78 111.593C248.903 111.435 249.131 111.338 249.465 111.303C250.449 111.233 251.32 111.04 252.075 110.723C252.831 110.389 253.209 109.958 253.209 109.431V81.0864C253.209 80.3833 253.016 79.8559 252.629 79.5044C252.26 79.1528 251.821 78.9243 251.311 78.8188C250.819 78.6958 250.142 78.5991 249.281 78.5288C248.894 78.4936 248.639 78.4233 248.516 78.3178C248.393 78.1948 248.331 77.9399 248.331 77.5532C248.331 77.2895 248.41 76.9995 248.569 76.6831C248.744 76.3667 248.964 76.2085 249.228 76.2085H265.786C266.05 76.2085 266.261 76.3667 266.419 76.6831C266.595 76.9995 266.683 77.2895 266.683 77.5532C266.683 78.2036 266.393 78.5288 265.813 78.5288C262.596 78.5288 260.988 79.3549 260.988 81.0073L260.961 108.957C260.961 109.748 261.181 110.284 261.62 110.565C262.077 110.829 262.693 110.96 263.466 110.96H270.77C271.543 110.96 272.325 110.503 273.116 109.589C273.925 108.675 274.672 107.541 275.358 106.188C276.043 104.817 276.615 103.428 277.072 102.022C277.159 101.741 277.397 101.53 277.783 101.389C278.17 101.231 278.539 101.152 278.891 101.152C279.26 101.152 279.585 101.231 279.866 101.389C280.148 101.547 280.271 101.767 280.236 102.048L278.759 113.624H249.491Z" fill="#2F3F6D"/>
<path d="M320.208 111.303C320.595 111.338 320.85 111.417 320.973 111.54C321.096 111.646 321.157 111.892 321.157 112.279C321.157 112.542 321.07 112.832 320.894 113.149C320.736 113.465 320.525 113.624 320.261 113.624H304.942C304.678 113.624 304.458 113.465 304.282 113.149C304.124 112.832 304.045 112.542 304.045 112.279C304.045 111.98 304.107 111.751 304.23 111.593C304.353 111.435 304.581 111.338 304.915 111.303L305.97 111.25C306.849 111.233 307.464 111.189 307.816 111.119C308.167 111.031 308.343 110.837 308.343 110.539C308.343 110.433 308.317 110.301 308.264 110.143L304.994 100.888H292.365L289.121 110.143C289.069 110.266 289.042 110.38 289.042 110.486C289.042 110.802 289.262 111.004 289.701 111.092C290.141 111.18 290.844 111.233 291.811 111.25L292.918 111.303C293.252 111.338 293.481 111.435 293.604 111.593C293.727 111.751 293.788 111.98 293.788 112.279C293.788 112.542 293.7 112.832 293.525 113.149C293.366 113.465 293.156 113.624 292.892 113.624H281.739C281.457 113.624 281.238 113.492 281.079 113.228C280.921 112.964 280.842 112.648 280.842 112.279C280.842 111.892 280.904 111.646 281.027 111.54C281.15 111.417 281.405 111.338 281.791 111.303C281.932 111.286 282.16 111.277 282.477 111.277C283.039 111.259 283.505 111.215 283.874 111.145C284.243 111.057 284.604 110.873 284.955 110.591C285.307 110.292 285.597 109.853 285.825 109.273L298.271 75.6284H303.808L316.069 109.273C316.28 109.871 316.561 110.319 316.912 110.618C317.281 110.899 317.659 111.075 318.046 111.145C318.45 111.215 318.925 111.259 319.47 111.277C319.804 111.277 320.05 111.286 320.208 111.303ZM299.141 82.2729L293.129 98.6206H304.23L299.141 82.2729Z" fill="#2F3F6D"/>
<path d="M324.322 113.624C324.058 113.624 323.838 113.465 323.662 113.149C323.504 112.832 323.425 112.542 323.425 112.279C323.425 111.98 323.487 111.751 323.61 111.593C323.733 111.435 323.961 111.338 324.295 111.303C325.332 111.215 326.202 111.048 326.906 110.802C327.609 110.539 327.96 110.143 327.96 109.616L327.987 81.0864C327.987 80.3833 327.802 79.8559 327.433 79.5044C327.064 79.1528 326.651 78.9331 326.194 78.8452C325.737 78.7397 325.086 78.6342 324.242 78.5288C323.856 78.4936 323.601 78.4233 323.478 78.3178C323.355 78.1948 323.293 77.9399 323.293 77.5532C323.293 77.2895 323.372 76.9995 323.531 76.6831C323.706 76.3667 323.926 76.2085 324.19 76.2085L327.09 76.1821C327.547 76.1645 328.241 76.1557 329.173 76.1557C330.316 76.1557 332.047 76.1206 334.367 76.0503C336.899 75.9799 338.982 75.9448 340.616 75.9448C345.187 75.9624 348.738 76.7798 351.269 78.3969C353.8 79.9966 355.066 82.5102 355.066 85.938C355.066 88.9438 354.248 91.2378 352.614 92.8198C350.979 94.4018 348.702 95.5796 345.784 96.353C347.349 96.5112 348.623 96.9419 349.608 97.645C350.61 98.3481 351.383 99.1743 351.928 100.124C352.49 101.055 353.115 102.33 353.8 103.947C354.257 105.001 354.617 105.828 354.881 106.425C355.162 107.005 355.488 107.594 355.857 108.192C356.402 109.264 356.982 110.029 357.597 110.486C358.23 110.943 358.906 111.207 359.627 111.277C359.996 111.312 360.242 111.409 360.365 111.567C360.506 111.725 360.576 112.006 360.576 112.411C360.576 112.657 360.489 112.92 360.313 113.202C360.155 113.483 359.944 113.624 359.68 113.624H351.348C350.504 113.624 349.783 113.298 349.186 112.648C348.588 111.998 348.087 111.189 347.683 110.222C347.279 109.238 346.804 107.911 346.259 106.241C345.609 104.272 345.02 102.69 344.492 101.495C343.983 100.282 343.288 99.2534 342.409 98.4096C341.548 97.5659 340.485 97.144 339.219 97.144H335.554V108.746C335.554 109.449 335.774 109.976 336.213 110.328C336.67 110.679 337.198 110.916 337.795 111.04C338.393 111.145 339.149 111.233 340.063 111.303C340.449 111.338 340.704 111.417 340.827 111.54C340.95 111.646 341.012 111.892 341.012 112.279C341.012 112.542 340.924 112.832 340.748 113.149C340.59 113.465 340.379 113.624 340.115 113.624H324.322ZM339.562 94.8764C341.935 94.8764 343.798 94.2612 345.152 93.0307C346.505 91.7827 347.182 89.6909 347.182 86.7553C347.182 83.9428 346.514 81.8686 345.178 80.5327C343.86 79.1792 341.908 78.5024 339.324 78.5024H335.58L335.554 94.8764H339.562Z" fill="#2F3F6D"/>
<path d="M163.71 32.1356C160.894 30.052 161.286 22.3907 162.852 15.8457C167.773 4.39685 176.727 0.811686 197.345 0.419556C198.624 9.57151 197.017 18.5314 189.609 28.5432C184.303 34.6234 168.336 37.3342 163.71 32.1356Z" fill="#C19B1A"/>
<path d="M136.008 47.361C132.505 47.361 128.263 40.9696 125.629 34.7765C122.775 22.646 127.84 14.4385 144.181 1.85909C150.653 8.45501 154.691 16.6132 154.691 29.068C154.042 37.1117 142.82 48.7881 136.008 47.361Z" fill="#C19B1A"/>
<path d="M179.429 62.2643H151.947C148.849 60.5313 146.592 58.3541 146.187 55.9772C144.904 52.718 150.559 46.7896 155.356 42.0695C168.809 36.611 180.211 38.2102 195.37 47.5082C192.507 53.9243 186.998 58.4549 179.429 62.2643Z" fill="#C19B1A"/>
<path d="M77.2151 62.2643C79.3494 60.3474 81.7897 58.3456 84.5524 56.2189C86.3863 58.0879 88.0247 60.0823 89.4313 62.2643H77.2151Z" fill="#C19B1A"/>
<path d="M65.2487 123.658H95.0367C98.3109 125.01 101.721 126.793 105.345 129.016C101.58 137.455 93.2355 142.633 81.6473 147.197C73.9256 149.542 57.3312 144.346 56.1627 137.485C54.8862 134.245 60.4696 128.365 65.2487 123.658Z" fill="#C19B1A"/>
<path d="M23.778 165.678L17.7606 157.655L41.3216 136.108C48.017 135.131 49.2405 136.947 49.3446 142.126L23.778 165.678Z" fill="#C19B1A"/>
<path d="M95.8984 62.2643C95.8705 62.1996 95.8428 62.1348 95.8153 62.0701C92.9611 49.9396 98.0257 41.7321 114.366 29.1527C120.839 35.7486 124.876 43.9069 124.876 56.3616C124.728 58.2055 124.023 60.2403 122.944 62.2643H95.8984Z" fill="#C19B1A"/>
<path d="M46.566 128.787C44.5424 128.787 42.272 126.654 40.2075 123.658H57.7422C54.1025 127.148 49.8283 129.47 46.566 128.787Z" fill="#C19B1A"/>
<path d="M122.553 149.511C122.392 149.511 122.258 149.414 122.151 149.221C122.054 149.027 122.005 148.85 122.005 148.689C122.005 148.506 122.043 148.367 122.118 148.27C122.193 148.173 122.333 148.114 122.537 148.093C123.515 148.039 124.31 147.91 124.922 147.706C125.545 147.491 125.857 147.115 125.857 146.578V128.241H121.828C121.27 128.241 120.808 128.569 120.443 129.224C120.088 129.868 119.825 130.588 119.653 131.383C119.492 132.178 119.39 132.855 119.347 133.413C119.325 133.596 119.218 133.73 119.025 133.816C118.842 133.902 118.643 133.945 118.428 133.945C118.267 133.945 118.09 133.897 117.897 133.8C117.703 133.693 117.607 133.558 117.607 133.397C117.66 131.786 117.725 130.261 117.8 128.821C117.886 127.371 117.983 126.646 118.09 126.646H138.828C138.935 126.646 139.026 127.371 139.102 128.821C139.188 130.261 139.257 131.786 139.311 133.397C139.311 133.558 139.214 133.693 139.021 133.8C138.828 133.897 138.651 133.945 138.489 133.945C138.275 133.945 138.07 133.902 137.877 133.816C137.694 133.73 137.592 133.596 137.571 133.413C137.442 132.253 137.195 131.104 136.83 129.965C136.464 128.816 135.884 128.241 135.089 128.241H131.271V146.53C131.271 146.959 131.437 147.282 131.77 147.496C132.103 147.711 132.484 147.856 132.914 147.931C133.344 147.996 133.881 148.05 134.526 148.093C134.762 148.114 134.918 148.162 134.993 148.238C135.068 148.302 135.106 148.452 135.106 148.689C135.106 148.85 135.052 149.027 134.944 149.221C134.848 149.414 134.719 149.511 134.558 149.511H122.553Z" fill="#C19B1A"/>
<path d="M141.325 145.611C141.325 144.29 141.83 143.232 142.84 142.437C143.86 141.642 145.096 141.067 146.546 140.713C148.007 140.348 149.656 140.068 151.493 139.875V137.216C151.493 136.26 151.289 135.605 150.88 135.25C150.483 134.885 149.887 134.702 149.092 134.702C148.168 134.702 147.556 134.794 147.255 134.976L144.693 139.279C143.93 139.279 143.302 139.069 142.808 138.65C142.324 138.221 142.083 137.673 142.083 137.007C142.083 136.147 142.491 135.433 143.307 134.864C144.134 134.284 145.139 133.859 146.32 133.591C147.513 133.311 148.668 133.172 149.785 133.172C151.375 133.172 152.691 133.365 153.733 133.752C154.775 134.128 155.543 134.654 156.037 135.331C156.531 135.997 156.778 136.77 156.778 137.651V146.32C156.778 146.739 156.837 147.094 156.955 147.384C157.073 147.663 157.218 147.803 157.39 147.803C157.519 147.803 157.815 147.754 158.276 147.658L158.695 147.593C158.867 147.593 158.991 147.69 159.066 147.883C159.141 148.066 159.179 148.275 159.179 148.512C159.179 148.651 159.147 148.748 159.082 148.802C158.91 148.92 158.599 149.065 158.148 149.237C157.707 149.409 157.143 149.564 156.456 149.704C155.779 149.844 155.043 149.913 154.248 149.913C153.443 149.913 152.857 149.774 152.492 149.494C152.127 149.215 151.917 148.947 151.863 148.689C151.82 148.431 151.799 148.119 151.799 147.754V147.706C151.111 148.426 150.279 148.973 149.301 149.349C148.335 149.715 147.276 149.897 146.127 149.897C145.407 149.897 144.677 149.747 143.936 149.446C143.194 149.145 142.571 148.673 142.067 148.028C141.572 147.384 141.325 146.578 141.325 145.611ZM146.788 145.45C146.788 146.03 146.97 146.53 147.336 146.949C147.712 147.368 148.233 147.577 148.899 147.577C149.962 147.577 150.827 147.169 151.493 146.352V141.164C150.58 141.304 149.79 141.497 149.124 141.744C148.469 141.991 147.916 142.41 147.464 143.001C147.013 143.592 146.788 144.408 146.788 145.45Z" fill="#C19B1A"/>
<path d="M161.064 149.511C160.892 149.511 160.758 149.441 160.661 149.301C160.565 149.151 160.516 149 160.516 148.85C160.516 148.667 160.554 148.528 160.629 148.431C160.704 148.334 160.844 148.275 161.048 148.254C161.574 148.211 162.015 148.125 162.369 147.996C162.734 147.856 162.917 147.652 162.917 147.384V136.974C162.917 136.47 162.826 136.083 162.643 135.814C162.461 135.546 162.246 135.368 161.999 135.283C161.752 135.197 161.429 135.121 161.032 135.057C160.978 135.046 160.898 135.035 160.79 135.025C160.683 135.003 160.591 134.982 160.516 134.96C160.387 134.907 160.291 134.831 160.226 134.735C160.162 134.638 160.13 134.498 160.13 134.316C160.13 134.165 160.167 134.015 160.242 133.865C160.318 133.703 160.409 133.618 160.516 133.607C162.461 133.532 164.577 133.478 166.865 133.446H167.332C167.44 133.446 167.542 133.494 167.638 133.591C167.735 133.687 167.794 133.854 167.816 134.09V137.361C168.127 136.663 168.573 135.997 169.153 135.363C169.744 134.719 170.426 134.192 171.199 133.784C171.973 133.376 172.773 133.172 173.6 133.172C174.524 133.172 175.206 133.456 175.647 134.026C176.087 134.584 176.307 135.277 176.307 136.104C176.307 136.631 176.184 137.13 175.937 137.603C175.69 138.076 175.378 138.457 175.002 138.747C174.637 139.026 174.282 139.166 173.939 139.166L171.586 136.088C170.877 136.088 170.2 136.443 169.556 137.152C168.911 137.85 168.396 138.682 168.009 139.649V146.852C168.009 147.206 168.127 147.475 168.363 147.658C168.61 147.84 168.906 147.969 169.25 148.044C169.593 148.109 170.039 148.168 170.587 148.222L170.925 148.254C171.162 148.275 171.318 148.324 171.393 148.399C171.468 148.463 171.505 148.614 171.505 148.85C171.505 149 171.457 149.151 171.36 149.301C171.264 149.441 171.13 149.511 170.958 149.511H161.064Z" fill="#C19B1A"/>
<path d="M178.305 149.511C178.133 149.511 177.999 149.441 177.902 149.301C177.806 149.151 177.757 149 177.757 148.85C177.757 148.667 177.795 148.528 177.87 148.431C177.956 148.324 178.096 148.264 178.289 148.254C178.794 148.211 179.229 148.125 179.594 147.996C179.96 147.856 180.142 147.652 180.142 147.384L180.158 136.974C180.158 136.48 180.067 136.104 179.884 135.847C179.713 135.589 179.503 135.417 179.256 135.331C179.02 135.245 178.708 135.175 178.321 135.121C177.988 135.068 177.8 135.035 177.757 135.025C177.629 134.971 177.532 134.896 177.467 134.799C177.403 134.702 177.371 134.563 177.371 134.38C177.371 134.23 177.403 134.079 177.467 133.929C177.543 133.768 177.639 133.682 177.757 133.671C180.142 133.521 182.479 133.446 184.767 133.446C184.885 133.446 184.992 133.499 185.089 133.607C185.196 133.703 185.25 133.865 185.25 134.09V146.852C185.25 147.228 185.347 147.518 185.54 147.722C185.744 147.915 185.975 148.044 186.233 148.109C186.491 148.162 186.818 148.211 187.216 148.254C187.452 148.275 187.608 148.324 187.683 148.399C187.758 148.463 187.796 148.614 187.796 148.85C187.796 148.99 187.742 149.135 187.635 149.285C187.538 149.435 187.409 149.511 187.248 149.511H178.305Z" fill="#C19B1A"/>
<path d="M190.068 149.511C189.896 149.511 189.762 149.441 189.665 149.301C189.568 149.151 189.52 149 189.52 148.85C189.52 148.667 189.558 148.528 189.633 148.431C189.708 148.334 189.848 148.275 190.052 148.254C190.535 148.211 190.938 148.125 191.26 147.996C191.593 147.856 191.76 147.652 191.76 147.384V136.974C191.76 136.48 191.669 136.104 191.486 135.847C191.303 135.589 191.089 135.417 190.841 135.331C190.605 135.245 190.294 135.175 189.907 135.121C189.595 135.078 189.413 135.046 189.359 135.025C189.23 134.971 189.133 134.896 189.069 134.799C189.005 134.702 188.972 134.563 188.972 134.38C188.972 134.23 189.005 134.079 189.069 133.929C189.144 133.768 189.241 133.682 189.359 133.671C192.356 133.542 194.639 133.467 196.207 133.446C196.315 133.446 196.417 133.494 196.513 133.591C196.61 133.687 196.669 133.854 196.691 134.09V135.895C196.97 135.594 197.448 135.229 198.125 134.799C198.812 134.369 199.623 133.993 200.558 133.671C201.492 133.338 202.443 133.172 203.41 133.172C204.43 133.172 205.3 133.354 206.02 133.72C206.74 134.085 207.266 134.729 207.599 135.653C208.416 135.041 209.42 134.477 210.612 133.961C211.816 133.435 213.142 133.172 214.592 133.172C215.484 133.172 216.247 133.306 216.88 133.575C217.514 133.832 218.019 134.316 218.395 135.025C218.782 135.723 218.975 136.706 218.975 137.973V146.852C218.975 147.389 219.126 147.743 219.426 147.915C219.738 148.077 220.055 148.173 220.377 148.205C220.71 148.227 220.925 148.243 221.022 148.254C221.215 148.275 221.349 148.329 221.424 148.415C221.51 148.49 221.553 148.635 221.553 148.85C221.553 149 221.505 149.151 221.408 149.301C221.312 149.441 221.177 149.511 221.005 149.511H212.353C212.181 149.511 212.047 149.441 211.95 149.301C211.853 149.151 211.805 149 211.805 148.85C211.805 148.667 211.837 148.528 211.901 148.431C211.977 148.334 212.111 148.275 212.304 148.254C212.691 148.222 213.046 148.13 213.368 147.98C213.69 147.819 213.851 147.62 213.851 147.384V138.054C213.851 137.635 213.819 137.259 213.755 136.926C213.69 136.593 213.513 136.292 213.223 136.024C212.943 135.755 212.514 135.621 211.934 135.621C210.602 135.621 209.259 136.174 207.905 137.281C207.927 137.581 207.938 137.812 207.938 137.973V146.852C207.938 147.4 208.061 147.754 208.308 147.915C208.555 148.077 208.824 148.173 209.114 148.205C209.415 148.227 209.608 148.243 209.694 148.254C209.887 148.275 210.022 148.329 210.097 148.415C210.183 148.49 210.226 148.635 210.226 148.85C210.226 149 210.177 149.151 210.081 149.301C209.984 149.441 209.85 149.511 209.678 149.511H201.347C201.175 149.511 201.041 149.441 200.944 149.301C200.848 149.151 200.799 149 200.799 148.85C200.799 148.667 200.832 148.528 200.896 148.431C200.971 148.334 201.106 148.275 201.299 148.254C201.696 148.222 202.072 148.13 202.427 147.98C202.792 147.819 202.975 147.62 202.975 147.384V138.054C202.975 137.431 202.84 136.872 202.572 136.378C202.303 135.873 201.75 135.621 200.912 135.621C200.332 135.621 199.811 135.707 199.349 135.879C198.898 136.051 198.517 136.255 198.205 136.491C197.894 136.717 197.534 137.012 197.126 137.377C197.072 137.442 196.981 137.528 196.852 137.635V146.852C196.852 147.239 196.927 147.534 197.077 147.738C197.228 147.931 197.416 148.06 197.641 148.125C197.867 148.179 198.151 148.222 198.495 148.254C198.732 148.275 198.887 148.324 198.963 148.399C199.038 148.463 199.075 148.614 199.075 148.85C199.075 148.99 199.022 149.135 198.914 149.285C198.818 149.435 198.689 149.511 198.527 149.511H190.068Z" fill="#C19B1A"/>
<path d="M254.779 148.093C255.015 148.114 255.171 148.162 255.246 148.238C255.321 148.302 255.359 148.452 255.359 148.689C255.359 148.85 255.305 149.027 255.198 149.221C255.101 149.414 254.972 149.511 254.811 149.511H244.789C244.628 149.511 244.493 149.414 244.386 149.221C244.289 149.027 244.241 148.85 244.241 148.689C244.241 148.506 244.278 148.367 244.354 148.27C244.429 148.173 244.568 148.114 244.773 148.093L245.417 148.06C245.943 148.05 246.309 148.023 246.513 147.98C246.717 147.926 246.819 147.813 246.819 147.641C246.819 147.566 246.803 147.48 246.771 147.384L244.756 141.825L237.038 141.808L235.04 147.384C235.008 147.459 234.992 147.529 234.992 147.593C234.992 147.786 235.126 147.91 235.395 147.964C235.663 148.017 236.093 148.05 236.684 148.06L237.36 148.093C237.565 148.114 237.704 148.173 237.779 148.27C237.855 148.367 237.892 148.506 237.892 148.689C237.892 148.85 237.839 149.027 237.731 149.221C237.634 149.414 237.505 149.511 237.344 149.511H230.528C230.357 149.511 230.222 149.43 230.126 149.269C230.029 149.108 229.981 148.914 229.981 148.689C229.981 148.452 230.018 148.302 230.093 148.238C230.169 148.162 230.324 148.114 230.561 148.093C230.647 148.082 230.786 148.077 230.98 148.077C231.313 148.066 231.592 148.039 231.818 147.996C232.054 147.942 232.279 147.829 232.494 147.658C232.709 147.475 232.886 147.206 233.026 146.852L240.76 126.291H244.531L252.185 146.852C252.324 147.217 252.507 147.491 252.733 147.674C252.958 147.846 253.189 147.953 253.425 147.996C253.662 148.039 253.957 148.066 254.312 148.077C254.526 148.077 254.682 148.082 254.779 148.093ZM241.244 130.336L237.489 140.439H244.273L241.244 130.336Z" fill="#C19B1A"/>
<path d="M256.503 149.511C256.331 149.511 256.197 149.441 256.1 149.301C256.004 149.151 255.955 149 255.955 148.85C255.955 148.667 255.993 148.528 256.068 148.431C256.154 148.324 256.294 148.264 256.487 148.254C256.992 148.211 257.427 148.125 257.792 147.996C258.157 147.856 258.34 147.652 258.34 147.384L258.356 128.112C258.356 127.607 258.254 127.226 258.05 126.968C257.846 126.71 257.604 126.538 257.325 126.452C257.046 126.367 256.686 126.297 256.245 126.243C255.88 126.189 255.676 126.157 255.633 126.146C255.504 126.093 255.407 126.017 255.343 125.921C255.278 125.824 255.246 125.684 255.246 125.502C255.246 125.351 255.284 125.201 255.359 125.051C255.434 124.889 255.526 124.804 255.633 124.793C257.953 124.642 260.343 124.567 262.803 124.567C262.922 124.567 263.029 124.621 263.126 124.728C263.233 124.825 263.287 124.986 263.287 125.212V146.852C263.287 147.228 263.383 147.518 263.577 147.722C263.781 147.915 264.012 148.044 264.27 148.109C264.527 148.162 264.855 148.211 265.253 148.254C265.489 148.275 265.645 148.324 265.72 148.399C265.795 148.463 265.833 148.614 265.833 148.85C265.833 149 265.784 149.151 265.688 149.301C265.591 149.441 265.457 149.511 265.285 149.511H256.503Z" fill="#C19B1A"/>
<path d="M276.919 149.978C273.793 149.978 271.472 149.242 269.958 147.77C268.443 146.299 267.686 144.182 267.686 141.422C267.686 139.692 268.089 138.204 268.894 136.958C269.711 135.712 270.801 134.772 272.165 134.139C273.529 133.494 275.028 133.172 276.661 133.172C279.046 133.172 280.823 133.639 281.994 134.574C283.165 135.497 283.901 136.856 284.202 138.65C284.298 139.23 284.347 140.117 284.347 141.309L273.164 141.325C273.164 142.883 273.406 144.145 273.889 145.112C274.383 146.078 275.006 146.771 275.758 147.19C276.51 147.609 277.305 147.819 278.143 147.819C279.131 147.819 279.959 147.69 280.625 147.432C281.301 147.174 281.892 146.75 282.397 146.159C282.408 146.148 282.435 146.116 282.478 146.062C282.531 145.998 282.585 145.955 282.639 145.933C282.693 145.912 282.752 145.907 282.816 145.917L283.525 146.256C283.632 146.299 283.686 146.363 283.686 146.449C283.686 146.514 283.654 146.605 283.589 146.723C283.009 147.733 282.161 148.528 281.044 149.108C279.926 149.688 278.551 149.978 276.919 149.978ZM278.981 139.827C278.981 137.968 278.793 136.625 278.417 135.798C278.041 134.96 277.44 134.541 276.612 134.541C275.742 134.541 274.99 134.976 274.357 135.847C273.734 136.706 273.352 138.033 273.213 139.827H278.981Z" fill="#C19B1A"/>
<path d="M293.386 149.994C291.839 149.994 290.604 149.693 289.68 149.092C288.767 148.49 288.311 147.432 288.311 145.917V135.25H286.587C286.479 135.24 286.388 135.159 286.313 135.009C286.237 134.848 286.2 134.692 286.2 134.541C286.2 134.348 286.232 134.187 286.297 134.058C286.372 133.929 286.474 133.843 286.603 133.8L288.617 133.204C288.864 133.15 289.143 132.935 289.455 132.559C289.777 132.173 290.078 131.679 290.357 131.077C290.636 130.465 290.857 129.799 291.018 129.079C291.114 128.66 291.528 128.451 292.258 128.451C293.075 128.451 293.483 128.633 293.483 128.998V133.494H297.044C297.162 133.505 297.254 133.564 297.318 133.671C297.393 133.779 297.431 133.902 297.431 134.042C297.431 134.375 297.377 134.654 297.27 134.88C297.173 135.105 297.066 135.218 296.947 135.218H293.483V144.483C293.483 145.396 293.526 146.095 293.612 146.578C293.709 147.051 293.859 147.378 294.063 147.561C294.278 147.733 294.584 147.819 294.982 147.819C295.336 147.819 295.755 147.749 296.238 147.609C296.722 147.47 297.168 147.298 297.576 147.094C297.64 147.061 297.732 147.126 297.85 147.287C297.968 147.448 298.059 147.625 298.124 147.819C298.188 148.001 298.188 148.114 298.124 148.157C297.855 148.447 297.436 148.737 296.867 149.027C296.308 149.306 295.707 149.537 295.062 149.72C294.428 149.903 293.87 149.994 293.386 149.994Z" fill="#C19B1A"/>
<path d="M299.88 149.511C299.708 149.511 299.574 149.441 299.477 149.301C299.38 149.151 299.332 149 299.332 148.85C299.332 148.667 299.37 148.528 299.445 148.431C299.531 148.324 299.671 148.264 299.864 148.254C300.369 148.211 300.804 148.125 301.169 147.996C301.534 147.856 301.717 147.652 301.717 147.384L301.733 128.112C301.733 127.607 301.631 127.226 301.427 126.968C301.223 126.71 300.981 126.538 300.702 126.452C300.422 126.367 300.063 126.297 299.622 126.243C299.257 126.189 299.053 126.157 299.01 126.146C298.881 126.093 298.784 126.017 298.72 125.921C298.655 125.824 298.623 125.684 298.623 125.502C298.623 125.351 298.661 125.201 298.736 125.051C298.811 124.889 298.902 124.804 299.01 124.793C301.33 124.642 303.72 124.567 306.18 124.567C306.298 124.567 306.406 124.621 306.503 124.728C306.61 124.825 306.664 124.986 306.664 125.212V146.852C306.664 147.228 306.76 147.518 306.954 147.722C307.158 147.915 307.389 148.044 307.647 148.109C307.904 148.162 308.232 148.211 308.63 148.254C308.866 148.275 309.022 148.324 309.097 148.399C309.172 148.463 309.21 148.614 309.21 148.85C309.21 149 309.161 149.151 309.065 149.301C308.968 149.441 308.834 149.511 308.662 149.511H299.88Z" fill="#C19B1A"/>
<path d="M320.296 149.978C317.17 149.978 314.849 149.242 313.335 147.77C311.82 146.299 311.063 144.182 311.063 141.422C311.063 139.692 311.465 138.204 312.271 136.958C313.088 135.712 314.178 134.772 315.542 134.139C316.906 133.494 318.405 133.172 320.038 133.172C322.422 133.172 324.2 133.639 325.371 134.574C326.542 135.497 327.278 136.856 327.579 138.65C327.675 139.23 327.724 140.117 327.724 141.309L316.541 141.325C316.541 142.883 316.783 144.145 317.266 145.112C317.76 146.078 318.383 146.771 319.135 147.19C319.887 147.609 320.682 147.819 321.52 147.819C322.508 147.819 323.336 147.69 324.002 147.432C324.678 147.174 325.269 146.75 325.774 146.159C325.785 146.148 325.812 146.116 325.855 146.062C325.908 145.998 325.962 145.955 326.016 145.933C326.069 145.912 326.129 145.907 326.193 145.917L326.902 146.256C327.009 146.299 327.063 146.363 327.063 146.449C327.063 146.514 327.031 146.605 326.966 146.723C326.386 147.733 325.538 148.528 324.421 149.108C323.303 149.688 321.928 149.978 320.296 149.978ZM322.358 139.827C322.358 137.968 322.17 136.625 321.794 135.798C321.418 134.96 320.817 134.541 319.989 134.541C319.119 134.541 318.367 134.976 317.734 135.847C317.11 136.706 316.729 138.033 316.589 139.827H322.358Z" fill="#C19B1A"/>
<path d="M330.479 149.511C330.307 149.511 330.173 149.441 330.076 149.301C329.98 149.151 329.931 149 329.931 148.85C329.931 148.667 329.969 148.528 330.044 148.431C330.119 148.334 330.259 148.275 330.463 148.254C330.989 148.211 331.43 148.125 331.784 147.996C332.15 147.856 332.332 147.652 332.332 147.384V136.974C332.332 136.47 332.241 136.083 332.058 135.814C331.876 135.546 331.661 135.368 331.414 135.283C331.167 135.197 330.844 135.121 330.447 135.057C330.393 135.046 330.313 135.035 330.205 135.025C330.098 135.003 330.006 134.982 329.931 134.96C329.802 134.907 329.706 134.831 329.641 134.735C329.577 134.638 329.545 134.498 329.545 134.316C329.545 134.165 329.582 134.015 329.657 133.865C329.733 133.703 329.824 133.618 329.931 133.607C331.876 133.532 333.992 133.478 336.28 133.446H336.747C336.855 133.446 336.957 133.494 337.053 133.591C337.15 133.687 337.209 133.854 337.231 134.09V137.361C337.542 136.663 337.988 135.997 338.568 135.363C339.159 134.719 339.841 134.192 340.614 133.784C341.388 133.376 342.188 133.172 343.015 133.172C343.939 133.172 344.621 133.456 345.062 134.026C345.502 134.584 345.722 135.277 345.722 136.104C345.722 136.631 345.599 137.13 345.352 137.603C345.105 138.076 344.793 138.457 344.417 138.747C344.052 139.026 343.697 139.166 343.354 139.166L341.001 136.088C340.292 136.088 339.615 136.443 338.971 137.152C338.326 137.85 337.811 138.682 337.424 139.649V146.852C337.424 147.206 337.542 147.475 337.778 147.658C338.026 147.84 338.321 147.969 338.665 148.044C339.008 148.109 339.454 148.168 340.002 148.222L340.34 148.254C340.577 148.275 340.733 148.324 340.808 148.399C340.883 148.463 340.921 148.614 340.921 148.85C340.921 149 340.872 149.151 340.776 149.301C340.679 149.441 340.545 149.511 340.373 149.511H330.479Z" fill="#C19B1A"/>
<path d="M347.72 149.511C347.548 149.511 347.414 149.441 347.318 149.301C347.221 149.151 347.172 149 347.172 148.85C347.172 148.667 347.21 148.528 347.285 148.431C347.371 148.324 347.511 148.264 347.704 148.254C348.209 148.211 348.644 148.125 349.009 147.996C349.375 147.856 349.557 147.652 349.557 147.384L349.573 136.974C349.573 136.48 349.482 136.104 349.299 135.847C349.128 135.589 348.918 135.417 348.671 135.331C348.435 135.245 348.123 135.175 347.736 135.121C347.403 135.068 347.215 135.035 347.172 135.025C347.044 134.971 346.947 134.896 346.882 134.799C346.818 134.702 346.786 134.563 346.786 134.38C346.786 134.23 346.818 134.079 346.882 133.929C346.958 133.768 347.054 133.682 347.172 133.671C349.557 133.521 351.894 133.446 354.182 133.446C354.3 133.446 354.407 133.499 354.504 133.607C354.611 133.703 354.665 133.865 354.665 134.09V146.852C354.665 147.228 354.762 147.518 354.955 147.722C355.159 147.915 355.39 148.044 355.648 148.109C355.906 148.162 356.234 148.211 356.631 148.254C356.867 148.275 357.023 148.324 357.098 148.399C357.173 148.463 357.211 148.614 357.211 148.85C357.211 148.99 357.157 149.135 357.05 149.285C356.953 149.435 356.824 149.511 356.663 149.511H347.72ZM352.006 130.658C351.448 130.658 350.938 130.535 350.476 130.287C350.014 130.03 349.649 129.681 349.38 129.24C349.111 128.789 348.977 128.279 348.977 127.709C348.977 127.14 349.111 126.63 349.38 126.179C349.649 125.727 350.014 125.378 350.476 125.131C350.938 124.873 351.448 124.744 352.006 124.744C352.554 124.744 353.059 124.873 353.521 125.131C353.983 125.378 354.348 125.727 354.617 126.179C354.896 126.63 355.036 127.14 355.036 127.709C355.036 128.279 354.896 128.789 354.617 129.24C354.348 129.681 353.983 130.03 353.521 130.287C353.059 130.535 352.554 130.658 352.006 130.658Z" fill="#C19B1A"/>
</svg>
