<svg width="340" height="166" viewBox="0 0 340 166" fill="none" xmlns="http://www.w3.org/2000/svg">
<path d="M14.1262 110.356C12.5963 110.356 11.2698 110.201 10.1467 109.892C9.02368 109.583 8.16919 109.306 7.58325 109.062C6.99731 108.802 6.64738 108.647 6.53345 108.598C6.28931 108.5 6.01261 108.362 5.70337 108.183C5.52433 108.085 5.3453 108.004 5.16626 107.939C5.0035 107.874 4.86515 107.841 4.75122 107.841C4.47453 107.841 4.19784 108.012 3.92114 108.354C3.33521 109.021 2.74113 109.355 2.13892 109.355C1.74829 109.355 1.43091 109.249 1.18677 109.038C0.958903 108.81 0.861247 108.525 0.893799 108.183C0.926351 107.858 0.942627 107.483 0.942627 107.06V106.108C0.942627 104.806 0.853109 103.081 0.674072 100.932C0.576416 99.6626 0.527588 98.9139 0.527588 98.686C0.527588 97.6606 0.975179 97.1479 1.87036 97.1479C2.22843 97.1479 2.52954 97.2374 2.77368 97.4165C3.01782 97.5792 3.18872 97.8315 3.28638 98.1733C3.62817 99.6219 4.19784 101.103 4.99536 102.617C5.9231 104.326 7.21704 105.677 8.8772 106.669C10.5374 107.662 12.287 108.159 14.1262 108.159C15.1191 108.159 16.0387 107.988 16.885 107.646C17.7476 107.304 18.4394 106.767 18.9602 106.035C19.481 105.286 19.7333 104.342 19.717 103.203C19.7008 101.949 19.3183 100.843 18.5696 99.8823C17.8372 98.9057 16.942 98.0757 15.884 97.3921C14.8261 96.7085 13.4264 95.9109 11.6848 94.9995C11.5221 94.9181 11.3756 94.8449 11.2454 94.7798C11.1314 94.7147 11.0256 94.6577 10.928 94.6089C8.92603 93.5672 7.29842 92.6232 6.04517 91.7768C4.79191 90.9142 3.70955 89.8237 2.7981 88.5053C1.90291 87.1707 1.44718 85.6001 1.43091 83.7934C1.41463 81.824 1.91919 80.1232 2.94458 78.6909C3.96997 77.2423 5.36971 76.1437 7.1438 75.395C8.91789 74.6463 10.8873 74.2719 13.052 74.2719C14.2727 74.2719 15.2981 74.3533 16.1282 74.5161C16.9583 74.6788 17.8046 74.8986 18.6672 75.1753C19.3834 75.4031 19.8717 75.5171 20.1321 75.5171C20.3762 75.5171 20.5634 75.4845 20.6936 75.4194C20.8238 75.3543 20.954 75.2566 21.0842 75.1264C21.2307 74.9962 21.3528 74.8986 21.4504 74.8335C21.6295 74.7195 21.8573 74.6626 22.134 74.6626C22.5247 74.6626 22.8909 74.7602 23.2327 74.9555C23.5745 75.1346 23.7454 75.3462 23.7454 75.5903C23.7616 76.7947 23.8918 78.5037 24.136 80.7173C24.2825 82.0031 24.3557 82.8087 24.3557 83.1342C24.3557 83.6225 24.2174 83.9806 23.9407 84.2085C23.664 84.4201 23.3222 84.5258 22.9153 84.5258C22.6223 84.5258 22.37 84.477 22.1584 84.3794C21.9631 84.2817 21.8248 84.1434 21.7434 83.9643C21.5806 83.0529 21.2226 82.0275 20.6692 80.8882C20.1158 79.7326 19.2369 78.6909 18.0325 77.7632C16.8443 76.8191 15.3144 76.3471 13.4426 76.3471C11.7174 76.3471 10.3014 76.7296 9.19458 77.4946C8.08781 78.2433 7.53442 79.4477 7.53442 81.1079C7.53442 82.2635 7.92505 83.3214 8.7063 84.2817C9.50382 85.242 10.4641 86.0883 11.5872 86.8208C12.7265 87.5369 14.1995 88.367 16.0061 89.311C18.1545 90.4341 19.9124 91.4513 21.2795 92.3628C22.663 93.2742 23.843 94.4054 24.8196 95.7563C25.7961 97.091 26.2844 98.6372 26.2844 100.395C26.2844 102.429 25.7392 104.204 24.6487 105.717C23.5582 107.215 22.0852 108.362 20.2297 109.16C18.3905 109.957 16.356 110.356 14.1262 110.356Z" fill="#2F3F6D"/>
<path d="M62.5149 97.0258C62.5149 99.7928 61.9941 102.177 60.9524 104.179C59.927 106.165 58.4377 107.687 56.4846 108.745C54.5478 109.803 52.2284 110.332 49.5266 110.332C44.774 110.332 41.0712 109.208 38.4182 106.962C35.7815 104.716 34.4631 101.233 34.4631 96.5132L34.4875 79.4966C34.4875 78.8455 34.3167 78.3572 33.9749 78.0317C33.6331 77.6899 33.2262 77.4702 32.7542 77.3725C32.2984 77.2749 31.7206 77.1935 31.0208 77.1284C30.6627 77.0958 30.4267 77.0307 30.3127 76.9331C30.1988 76.8191 30.1418 76.5831 30.1418 76.2251C30.1418 75.9809 30.2151 75.7124 30.3616 75.4194C30.5243 75.1264 30.7278 74.9799 30.9719 74.9799H45.425C45.6692 74.9799 45.8645 75.1264 46.011 75.4194C46.1737 75.7124 46.2551 75.9809 46.2551 76.2251C46.2551 76.5018 46.19 76.7215 46.0598 76.8842C45.9459 77.0307 45.7424 77.1121 45.4495 77.1284C44.4078 77.2098 43.5208 77.3725 42.7883 77.6167C42.0559 77.8445 41.6897 78.2026 41.6897 78.6909L41.6653 96.8305C41.6653 99.4998 41.9501 101.656 42.5198 103.3C43.1057 104.944 43.9765 106.149 45.1321 106.914C46.304 107.662 47.8014 108.037 49.6243 108.037C51.968 108.037 53.8886 107.548 55.386 106.572C56.8834 105.595 57.9657 104.285 58.6331 102.641C59.3167 100.997 59.6584 99.1417 59.6584 97.0747V79.2524C59.6584 78.5525 59.2271 78.0561 58.3645 77.7632C57.5019 77.4702 56.4928 77.2586 55.3372 77.1284C54.9791 77.0958 54.7431 77.0307 54.6292 76.9331C54.5152 76.8191 54.4583 76.5831 54.4583 76.2251C54.4583 75.9809 54.5315 75.7124 54.678 75.4194C54.8407 75.1264 55.0442 74.9799 55.2883 74.9799H66.6653C66.9094 74.9799 67.1047 75.1264 67.2512 75.4194C67.414 75.7124 67.4954 75.9809 67.4954 76.2251C67.4954 76.5018 67.4303 76.7215 67.3 76.8842C67.1861 77.0307 66.9827 77.1121 66.6897 77.1284C65.4039 77.1772 64.3948 77.4132 63.6624 77.8364C62.9299 78.2433 62.5637 78.8292 62.5637 79.5942L62.5149 97.0258Z" fill="#2F3F6D"/>
<path d="M71.011 109.624C70.7668 109.624 70.5634 109.477 70.4006 109.184C70.2542 108.891 70.1809 108.623 70.1809 108.378C70.1809 108.102 70.2379 107.89 70.3518 107.744C70.4657 107.597 70.6773 107.508 70.9866 107.475C73.8349 107.247 75.259 106.564 75.259 105.424V80.3755C75.259 79.7244 75.0068 79.171 74.5022 78.7153C74.0139 78.2433 73.428 77.8771 72.7444 77.6167C72.0608 77.3563 71.426 77.1935 70.8401 77.1284C70.482 77.0958 70.246 77.0307 70.1321 76.9331C70.0181 76.8191 69.9612 76.5831 69.9612 76.2251C69.9612 75.9809 70.0344 75.7124 70.1809 75.4194C70.3437 75.1264 70.5471 74.9799 70.7913 74.9799H81.4846L100.991 99.4673H101.284V79.4966C101.284 78.8618 101.04 78.3816 100.552 78.0561C100.08 77.7306 99.608 77.5272 99.136 77.4458C98.664 77.3481 97.9071 77.2423 96.8655 77.1284C96.5074 77.0958 96.2714 77.0307 96.1575 76.9331C96.0435 76.8191 95.9866 76.5831 95.9866 76.2251C95.9866 75.9809 96.0598 75.7124 96.2063 75.4194C96.3691 75.1264 96.5725 74.9799 96.8167 74.9799H108.242C108.487 74.9799 108.682 75.1264 108.828 75.4194C108.991 75.7124 109.073 75.9809 109.073 76.2251C109.073 76.5018 109.016 76.7133 108.902 76.8598C108.788 77.0063 108.576 77.0958 108.267 77.1284C107.062 77.2749 106.045 77.5027 105.215 77.812C104.401 78.1049 103.994 78.6421 103.994 79.4233V106.865C103.994 107.158 104.019 107.467 104.068 107.792L104.141 108.647C104.19 109.233 103.962 109.664 103.457 109.941C102.969 110.218 102.44 110.356 101.87 110.356C101.626 110.356 101.374 110.299 101.114 110.185C100.869 110.087 100.682 109.965 100.552 109.819L78.5549 82.4995H78.1399V105.107C78.1399 105.742 78.3922 106.222 78.8967 106.547C79.4176 106.873 79.914 107.076 80.386 107.158C80.858 107.239 81.6637 107.345 82.803 107.475C83.1611 107.508 83.3971 107.581 83.511 107.695C83.6249 107.792 83.6819 108.02 83.6819 108.378C83.6819 108.623 83.6005 108.891 83.4377 109.184C83.2913 109.477 83.0959 109.624 82.8518 109.624H71.011Z" fill="#2F3F6D"/>
<path d="M130.215 110.356C127.448 110.356 124.632 109.754 121.768 108.549C118.92 107.345 116.511 105.4 114.541 102.714C112.572 100.013 111.587 96.5701 111.587 92.3872C111.587 88.2042 112.564 84.7537 114.517 82.0356C116.47 79.3175 118.895 77.34 121.792 76.103C124.706 74.866 127.643 74.2475 130.606 74.2475C133.389 74.2475 135.765 74.4673 137.735 74.9067C139.72 75.3462 141.348 75.8426 142.617 76.396L143.155 83.9643C143.171 84.2247 143.032 84.4526 142.74 84.6479C142.447 84.8432 142.178 84.9409 141.934 84.9409L141.616 84.9653C141.275 84.9653 140.957 84.9083 140.664 84.7944C140.371 84.6805 140.2 84.5014 140.152 84.2573C139.517 81.9624 138.434 80.115 136.905 78.7153C135.391 77.3156 133.275 76.6076 130.557 76.5913C129.027 76.5913 127.448 77.0145 125.821 77.8608C124.209 78.7072 122.801 80.3104 121.597 82.6704C120.392 85.0141 119.79 88.2531 119.79 92.3872C119.79 96.0656 120.384 99.0766 121.573 101.42C122.777 103.764 124.234 105.457 125.943 106.499C127.652 107.524 129.295 108.037 130.874 108.037C134.715 108.037 136.636 106.971 136.636 104.838V98.4907C136.636 97.8397 136.408 97.3514 135.952 97.0258C135.513 96.7003 135.008 96.4887 134.439 96.3911C133.869 96.2934 133.112 96.2039 132.168 96.1225C131.81 96.09 131.574 96.0249 131.46 95.9272C131.346 95.8133 131.289 95.5773 131.289 95.2192C131.289 94.9751 131.363 94.7065 131.509 94.4135C131.672 94.1206 131.875 93.9741 132.119 93.9741H146.475C146.719 93.9741 146.914 94.1206 147.061 94.4135C147.224 94.7065 147.305 94.9751 147.305 95.2192C147.305 95.4959 147.248 95.7075 147.134 95.854C147.02 96.0005 146.809 96.09 146.499 96.1225C145.637 96.2039 144.945 96.3667 144.424 96.6108C143.903 96.8387 143.643 97.1967 143.643 97.685L143.716 106.621C143.423 107.044 142.666 107.556 141.446 108.159C140.225 108.745 138.638 109.257 136.685 109.697C134.732 110.136 132.575 110.356 130.215 110.356Z" fill="#2F3F6D"/>
<path d="M182.681 97.0258C182.681 99.7928 182.16 102.177 181.118 104.179C180.093 106.165 178.604 107.687 176.651 108.745C174.714 109.803 172.394 110.332 169.693 110.332C164.94 110.332 161.237 109.208 158.584 106.962C155.948 104.716 154.629 101.233 154.629 96.5132L154.654 79.4966C154.654 78.8455 154.483 78.3572 154.141 78.0317C153.799 77.6899 153.392 77.4702 152.92 77.3725C152.464 77.2749 151.887 77.1935 151.187 77.1284C150.829 77.0958 150.593 77.0307 150.479 76.9331C150.365 76.8191 150.308 76.5831 150.308 76.2251C150.308 75.9809 150.381 75.7124 150.528 75.4194C150.69 75.1264 150.894 74.9799 151.138 74.9799H165.591C165.835 74.9799 166.031 75.1264 166.177 75.4194C166.34 75.7124 166.421 75.9809 166.421 76.2251C166.421 76.5018 166.356 76.7215 166.226 76.8842C166.112 77.0307 165.908 77.1121 165.615 77.1284C164.574 77.2098 163.687 77.3725 162.954 77.6167C162.222 77.8445 161.856 78.2026 161.856 78.6909L161.831 96.8305C161.831 99.4998 162.116 101.656 162.686 103.3C163.272 104.944 164.142 106.149 165.298 106.914C166.47 107.662 167.967 108.037 169.79 108.037C172.134 108.037 174.055 107.548 175.552 106.572C177.049 105.595 178.132 104.285 178.799 102.641C179.483 100.997 179.824 99.1417 179.824 97.0747V79.2524C179.824 78.5525 179.393 78.0561 178.531 77.7632C177.668 77.4702 176.659 77.2586 175.503 77.1284C175.145 77.0958 174.909 77.0307 174.795 76.9331C174.681 76.8191 174.624 76.5831 174.624 76.2251C174.624 75.9809 174.698 75.7124 174.844 75.4194C175.007 75.1264 175.21 74.9799 175.454 74.9799H186.831C187.075 74.9799 187.271 75.1264 187.417 75.4194C187.58 75.7124 187.661 75.9809 187.661 76.2251C187.661 76.5018 187.596 76.7215 187.466 76.8842C187.352 77.0307 187.149 77.1121 186.856 77.1284C185.57 77.1772 184.561 77.4132 183.828 77.8364C183.096 78.2433 182.73 78.8292 182.73 79.5942L182.681 97.0258Z" fill="#2F3F6D"/>
<path d="M192.447 109.624C192.202 109.624 191.999 109.477 191.836 109.184C191.69 108.891 191.616 108.623 191.616 108.378C191.616 108.102 191.673 107.89 191.787 107.744C191.901 107.597 192.113 107.508 192.422 107.475C193.382 107.394 194.188 107.239 194.839 107.011C195.49 106.767 195.816 106.401 195.816 105.913L195.84 79.4966C195.84 78.8455 195.669 78.3572 195.327 78.0317C194.986 77.7062 194.603 77.5027 194.18 77.4214C193.757 77.3237 193.155 77.226 192.373 77.1284C192.015 77.0958 191.779 77.0307 191.665 76.9331C191.551 76.8191 191.494 76.5831 191.494 76.2251C191.494 75.9809 191.568 75.7124 191.714 75.4194C191.877 75.1264 192.08 74.9799 192.324 74.9799L195.01 74.9555C195.433 74.9393 196.076 74.9311 196.939 74.9311C197.997 74.9311 199.6 74.8986 201.748 74.8335C204.092 74.7684 206.021 74.7358 207.534 74.7358C211.766 74.7521 215.054 75.5089 217.398 77.0063C219.741 78.4874 220.913 80.8149 220.913 83.9887C220.913 86.7719 220.156 88.896 218.643 90.3608C217.129 91.8257 215.021 92.9161 212.32 93.6323C213.768 93.7788 214.948 94.1775 215.86 94.8286C216.787 95.4796 217.503 96.2446 218.008 97.1235C218.529 97.9861 219.107 99.1661 219.741 100.664C220.165 101.64 220.498 102.405 220.742 102.958C221.003 103.496 221.304 104.041 221.646 104.594C222.15 105.587 222.687 106.295 223.257 106.718C223.843 107.141 224.47 107.386 225.137 107.451C225.479 107.483 225.707 107.573 225.821 107.719C225.951 107.866 226.016 108.126 226.016 108.5C226.016 108.728 225.934 108.972 225.772 109.233C225.625 109.493 225.43 109.624 225.186 109.624H217.471C216.69 109.624 216.022 109.322 215.469 108.72C214.916 108.118 214.452 107.369 214.077 106.474C213.703 105.563 213.264 104.334 212.759 102.788C212.157 100.965 211.612 99.4998 211.123 98.393C210.651 97.27 210.008 96.3178 209.195 95.5366C208.397 94.7553 207.412 94.3647 206.24 94.3647H202.847V105.107C202.847 105.758 203.05 106.246 203.457 106.572C203.88 106.897 204.369 107.117 204.922 107.231C205.476 107.329 206.175 107.41 207.022 107.475C207.38 107.508 207.616 107.581 207.73 107.695C207.844 107.792 207.901 108.02 207.901 108.378C207.901 108.623 207.819 108.891 207.656 109.184C207.51 109.477 207.315 109.624 207.071 109.624H192.447ZM206.558 92.2651C208.755 92.2651 210.48 91.6954 211.734 90.5561C212.987 89.4005 213.614 87.4637 213.614 84.7456C213.614 82.1414 212.995 80.2208 211.758 78.9839C210.537 77.7306 208.731 77.104 206.338 77.104H202.871L202.847 92.2651H206.558Z" fill="#2F3F6D"/>
<path d="M230.825 109.624C230.581 109.624 230.378 109.477 230.215 109.184C230.069 108.891 229.995 108.623 229.995 108.378C229.995 108.102 230.052 107.89 230.166 107.744C230.28 107.597 230.492 107.508 230.801 107.475C231.712 107.41 232.518 107.231 233.218 106.938C233.918 106.629 234.268 106.23 234.268 105.742V79.4966C234.268 78.8455 234.089 78.3572 233.731 78.0317C233.389 77.7062 232.982 77.4946 232.51 77.3969C232.054 77.283 231.428 77.1935 230.63 77.1284C230.272 77.0958 230.036 77.0307 229.922 76.9331C229.808 76.8191 229.751 76.5831 229.751 76.2251C229.751 75.9809 229.824 75.7124 229.971 75.4194C230.134 75.1264 230.337 74.9799 230.581 74.9799H245.913C246.157 74.9799 246.353 75.1264 246.499 75.4194C246.662 75.7124 246.743 75.9809 246.743 76.2251C246.743 76.8273 246.475 77.1284 245.938 77.1284C242.959 77.1284 241.47 77.8934 241.47 79.4233L241.446 105.302C241.446 106.035 241.649 106.531 242.056 106.791C242.479 107.036 243.049 107.158 243.765 107.158H250.528C251.244 107.158 251.968 106.735 252.7 105.888C253.449 105.042 254.141 103.992 254.776 102.739C255.41 101.469 255.939 100.183 256.363 98.8813C256.444 98.6209 256.664 98.4256 257.022 98.2954C257.38 98.1489 257.722 98.0757 258.047 98.0757C258.389 98.0757 258.69 98.1489 258.95 98.2954C259.211 98.4419 259.325 98.6453 259.292 98.9057L257.925 109.624H230.825Z" fill="#2F3F6D"/>
<path d="M296.304 107.475C296.662 107.508 296.898 107.581 297.012 107.695C297.126 107.792 297.183 108.02 297.183 108.378C297.183 108.623 297.101 108.891 296.939 109.184C296.792 109.477 296.597 109.624 296.353 109.624H282.168C281.924 109.624 281.721 109.477 281.558 109.184C281.411 108.891 281.338 108.623 281.338 108.378C281.338 108.102 281.395 107.89 281.509 107.744C281.623 107.597 281.835 107.508 282.144 107.475L283.12 107.426C283.934 107.41 284.504 107.369 284.829 107.304C285.155 107.223 285.318 107.044 285.318 106.767C285.318 106.669 285.293 106.547 285.244 106.401L282.217 97.8315H270.523L267.52 106.401C267.471 106.515 267.447 106.621 267.447 106.718C267.447 107.011 267.65 107.198 268.057 107.28C268.464 107.361 269.115 107.41 270.01 107.426L271.035 107.475C271.345 107.508 271.556 107.597 271.67 107.744C271.784 107.89 271.841 108.102 271.841 108.378C271.841 108.623 271.76 108.891 271.597 109.184C271.45 109.477 271.255 109.624 271.011 109.624H260.684C260.423 109.624 260.22 109.501 260.073 109.257C259.927 109.013 259.854 108.72 259.854 108.378C259.854 108.02 259.911 107.792 260.025 107.695C260.139 107.581 260.375 107.508 260.733 107.475C260.863 107.459 261.074 107.451 261.367 107.451C261.888 107.434 262.32 107.394 262.661 107.329C263.003 107.247 263.337 107.076 263.662 106.816C263.988 106.539 264.256 106.132 264.468 105.595L275.991 74.4428H281.118L292.471 105.595C292.666 106.149 292.927 106.564 293.252 106.84C293.594 107.101 293.944 107.263 294.302 107.329C294.676 107.394 295.116 107.434 295.62 107.451C295.93 107.451 296.157 107.459 296.304 107.475ZM276.797 80.5952L271.231 95.7319H281.509L276.797 80.5952Z" fill="#2F3F6D"/>
<path d="M300.113 109.624C299.868 109.624 299.665 109.477 299.502 109.184C299.356 108.891 299.282 108.623 299.282 108.378C299.282 108.102 299.339 107.89 299.453 107.744C299.567 107.597 299.779 107.508 300.088 107.475C301.048 107.394 301.854 107.239 302.505 107.011C303.156 106.767 303.482 106.401 303.482 105.913L303.506 79.4966C303.506 78.8455 303.335 78.3572 302.993 78.0317C302.652 77.7062 302.269 77.5027 301.846 77.4214C301.423 77.3237 300.821 77.226 300.039 77.1284C299.681 77.0958 299.445 77.0307 299.331 76.9331C299.217 76.8191 299.16 76.5831 299.16 76.2251C299.16 75.9809 299.234 75.7124 299.38 75.4194C299.543 75.1264 299.746 74.9799 299.99 74.9799L302.676 74.9555C303.099 74.9393 303.742 74.9311 304.605 74.9311C305.663 74.9311 307.266 74.8986 309.414 74.8335C311.758 74.7684 313.687 74.7358 315.2 74.7358C319.432 74.7521 322.72 75.5089 325.064 77.0063C327.407 78.4874 328.579 80.8149 328.579 83.9887C328.579 86.7719 327.823 88.896 326.309 90.3608C324.795 91.8257 322.687 92.9161 319.986 93.6323C321.434 93.7788 322.614 94.1775 323.526 94.8286C324.453 95.4796 325.17 96.2446 325.674 97.1235C326.195 97.9861 326.773 99.1661 327.407 100.664C327.831 101.64 328.164 102.405 328.408 102.958C328.669 103.496 328.97 104.041 329.312 104.594C329.816 105.587 330.353 106.295 330.923 106.718C331.509 107.141 332.136 107.386 332.803 107.451C333.145 107.483 333.373 107.573 333.487 107.719C333.617 107.866 333.682 108.126 333.682 108.5C333.682 108.728 333.601 108.972 333.438 109.233C333.291 109.493 333.096 109.624 332.852 109.624H325.137C324.356 109.624 323.688 109.322 323.135 108.72C322.582 108.118 322.118 107.369 321.743 106.474C321.369 105.563 320.93 104.334 320.425 102.788C319.823 100.965 319.278 99.4998 318.789 98.393C318.317 97.27 317.674 96.3178 316.861 95.5366C316.063 94.7553 315.078 94.3647 313.906 94.3647H310.513V105.107C310.513 105.758 310.716 106.246 311.123 106.572C311.546 106.897 312.035 107.117 312.588 107.231C313.142 107.329 313.841 107.41 314.688 107.475C315.046 107.508 315.282 107.581 315.396 107.695C315.51 107.792 315.567 108.02 315.567 108.378C315.567 108.623 315.485 108.891 315.323 109.184C315.176 109.477 314.981 109.624 314.737 109.624H300.113ZM314.224 92.2651C316.421 92.2651 318.146 91.6954 319.4 90.5561C320.653 89.4005 321.28 87.4637 321.28 84.7456C321.28 82.1414 320.661 80.2208 319.424 78.9839C318.203 77.7306 316.397 77.104 314.004 77.104H310.537L310.513 92.2651H314.224Z" fill="#2F3F6D"/>
<path d="M163.71 32.1356C160.894 30.052 161.286 22.3907 162.852 15.8457C167.773 4.39685 176.727 0.811686 197.345 0.419556C198.624 9.57151 197.017 18.5314 189.609 28.5432C184.303 34.6234 168.336 37.3342 163.71 32.1356Z" fill="#C19B1A"/>
<path d="M136.008 47.361C132.505 47.361 128.263 40.9696 125.629 34.7765C122.775 22.646 127.84 14.4385 144.181 1.85909C150.653 8.45501 154.691 16.6132 154.691 29.068C154.042 37.1117 142.82 48.7881 136.008 47.361Z" fill="#C19B1A"/>
<path d="M179.429 62.2643H151.947C148.849 60.5313 146.592 58.3541 146.187 55.9772C144.904 52.718 150.559 46.7896 155.356 42.0695C168.809 36.611 180.211 38.2102 195.37 47.5082C192.507 53.9243 186.998 58.4549 179.429 62.2643Z" fill="#C19B1A"/>
<path d="M77.2151 62.2643C79.3494 60.3474 81.7897 58.3456 84.5524 56.2189C86.3863 58.0879 88.0247 60.0823 89.4313 62.2643H77.2151Z" fill="#C19B1A"/>
<path d="M65.2487 123.658H95.0367C98.3109 125.01 101.721 126.793 105.345 129.016C101.58 137.455 93.2355 142.633 81.6473 147.197C73.9256 149.542 57.3312 144.346 56.1627 137.485C54.8862 134.245 60.4696 128.365 65.2487 123.658Z" fill="#C19B1A"/>
<path d="M23.778 165.678L17.7606 157.655L41.3216 136.108C48.017 135.131 49.2405 136.947 49.3446 142.126L23.778 165.678Z" fill="#C19B1A"/>
<path d="M95.8984 62.2643C95.8705 62.1996 95.8428 62.1348 95.8153 62.0701C92.9611 49.9396 98.0257 41.7321 114.366 29.1527C120.839 35.7486 124.876 43.9069 124.876 56.3616C124.728 58.2055 124.023 60.2403 122.944 62.2643H95.8984Z" fill="#C19B1A"/>
<path d="M46.566 128.787C44.5424 128.787 42.272 126.654 40.2075 123.658H57.7422C54.1025 127.148 49.8283 129.47 46.566 128.787Z" fill="#C19B1A"/>
<path d="M125.884 155.678C125.737 155.678 125.615 155.59 125.518 155.415C125.43 155.239 125.386 155.078 125.386 154.931C125.386 154.765 125.42 154.638 125.488 154.55C125.557 154.462 125.684 154.409 125.869 154.389C126.758 154.34 127.481 154.223 128.037 154.038C128.604 153.842 128.887 153.501 128.887 153.012V136.342H125.225C124.717 136.342 124.297 136.64 123.965 137.236C123.643 137.822 123.403 138.476 123.247 139.199C123.101 139.921 123.008 140.537 122.969 141.044C122.949 141.211 122.852 141.333 122.676 141.411C122.51 141.489 122.329 141.528 122.134 141.528C121.987 141.528 121.826 141.484 121.651 141.396C121.475 141.298 121.387 141.176 121.387 141.03C121.436 139.565 121.494 138.178 121.563 136.87C121.641 135.551 121.729 134.892 121.826 134.892H140.679C140.776 134.892 140.859 135.551 140.928 136.87C141.006 138.178 141.069 139.565 141.118 141.03C141.118 141.176 141.03 141.298 140.855 141.396C140.679 141.484 140.518 141.528 140.371 141.528C140.176 141.528 139.99 141.489 139.815 141.411C139.649 141.333 139.556 141.211 139.536 141.044C139.419 139.99 139.194 138.945 138.862 137.91C138.53 136.865 138.003 136.342 137.28 136.342H133.809V152.968C133.809 153.359 133.96 153.652 134.263 153.847C134.566 154.043 134.912 154.174 135.303 154.243C135.693 154.301 136.182 154.35 136.768 154.389C136.983 154.409 137.124 154.453 137.193 154.521C137.261 154.58 137.295 154.716 137.295 154.931C137.295 155.078 137.246 155.239 137.149 155.415C137.061 155.59 136.943 155.678 136.797 155.678H125.884Z" fill="#C19B1A"/>
<path d="M142.949 152.133C142.949 150.932 143.408 149.97 144.326 149.248C145.254 148.525 146.377 148.003 147.695 147.68C149.024 147.348 150.523 147.094 152.193 146.919V144.502C152.193 143.632 152.007 143.037 151.636 142.714C151.275 142.382 150.733 142.216 150.01 142.216C149.17 142.216 148.613 142.299 148.34 142.465L146.011 146.377C145.318 146.377 144.746 146.186 144.297 145.805C143.858 145.415 143.638 144.917 143.638 144.311C143.638 143.53 144.009 142.88 144.751 142.363C145.503 141.836 146.416 141.45 147.49 141.206C148.574 140.952 149.624 140.825 150.64 140.825C152.085 140.825 153.281 141.001 154.229 141.352C155.176 141.694 155.874 142.172 156.323 142.788C156.773 143.393 156.997 144.096 156.997 144.897V152.778C156.997 153.159 157.051 153.481 157.158 153.745C157.266 153.999 157.398 154.126 157.554 154.126C157.671 154.126 157.94 154.082 158.359 153.994L158.74 153.935C158.897 153.935 159.009 154.023 159.077 154.199C159.146 154.365 159.18 154.555 159.18 154.77C159.18 154.897 159.151 154.985 159.092 155.034C158.936 155.141 158.652 155.273 158.242 155.429C157.842 155.586 157.329 155.727 156.704 155.854C156.089 155.981 155.42 156.044 154.697 156.044C153.965 156.044 153.433 155.918 153.101 155.664C152.769 155.41 152.578 155.166 152.529 154.931C152.49 154.697 152.471 154.414 152.471 154.082V154.038C151.846 154.692 151.089 155.19 150.2 155.532C149.321 155.864 148.359 156.03 147.315 156.03C146.66 156.03 145.996 155.893 145.322 155.62C144.649 155.346 144.082 154.917 143.623 154.331C143.174 153.745 142.949 153.012 142.949 152.133ZM147.915 151.987C147.915 152.514 148.081 152.968 148.413 153.349C148.755 153.73 149.229 153.92 149.834 153.92C150.801 153.92 151.587 153.549 152.193 152.807V148.09C151.362 148.217 150.645 148.393 150.039 148.618C149.443 148.842 148.941 149.223 148.53 149.76C148.12 150.297 147.915 151.04 147.915 151.987Z" fill="#C19B1A"/>
<path d="M160.894 155.678C160.737 155.678 160.615 155.615 160.527 155.488C160.44 155.351 160.396 155.214 160.396 155.078C160.396 154.912 160.43 154.785 160.498 154.697C160.567 154.609 160.693 154.555 160.879 154.536C161.358 154.497 161.758 154.419 162.08 154.301C162.412 154.174 162.578 153.989 162.578 153.745V144.282C162.578 143.823 162.495 143.471 162.329 143.227C162.163 142.983 161.968 142.822 161.743 142.744C161.519 142.666 161.226 142.597 160.864 142.539C160.816 142.529 160.742 142.519 160.645 142.509C160.547 142.49 160.464 142.47 160.396 142.451C160.278 142.402 160.191 142.334 160.132 142.246C160.073 142.158 160.044 142.031 160.044 141.865C160.044 141.728 160.078 141.591 160.147 141.455C160.215 141.308 160.298 141.23 160.396 141.22C162.163 141.152 164.087 141.103 166.167 141.074H166.592C166.69 141.074 166.782 141.118 166.87 141.206C166.958 141.294 167.012 141.445 167.031 141.66V144.633C167.315 143.999 167.72 143.393 168.247 142.817C168.784 142.231 169.404 141.753 170.108 141.381C170.811 141.01 171.538 140.825 172.29 140.825C173.13 140.825 173.75 141.084 174.151 141.601C174.551 142.109 174.751 142.739 174.751 143.491C174.751 143.969 174.639 144.423 174.414 144.853C174.19 145.283 173.906 145.629 173.565 145.893C173.233 146.147 172.91 146.274 172.598 146.274L170.459 143.476C169.815 143.476 169.199 143.798 168.613 144.443C168.027 145.078 167.559 145.835 167.207 146.713V153.261C167.207 153.584 167.315 153.828 167.529 153.994C167.754 154.16 168.023 154.277 168.335 154.345C168.648 154.404 169.053 154.458 169.551 154.506L169.859 154.536C170.073 154.555 170.215 154.599 170.283 154.668C170.352 154.726 170.386 154.863 170.386 155.078C170.386 155.214 170.342 155.351 170.254 155.488C170.166 155.615 170.044 155.678 169.888 155.678H160.894Z" fill="#C19B1A"/>
<path d="M176.568 155.678C176.411 155.678 176.289 155.615 176.201 155.488C176.113 155.351 176.069 155.214 176.069 155.078C176.069 154.912 176.104 154.785 176.172 154.697C176.25 154.599 176.377 154.545 176.553 154.536C177.012 154.497 177.407 154.419 177.739 154.301C178.071 154.174 178.237 153.989 178.237 153.745L178.252 144.282C178.252 143.833 178.169 143.491 178.003 143.256C177.847 143.022 177.656 142.866 177.432 142.788C177.217 142.71 176.934 142.646 176.582 142.597C176.279 142.548 176.109 142.519 176.069 142.509C175.952 142.461 175.864 142.392 175.806 142.304C175.747 142.216 175.718 142.089 175.718 141.923C175.718 141.787 175.747 141.65 175.806 141.513C175.874 141.367 175.962 141.289 176.069 141.279C178.237 141.142 180.361 141.074 182.442 141.074C182.549 141.074 182.647 141.123 182.734 141.22C182.832 141.308 182.881 141.455 182.881 141.66V153.261C182.881 153.603 182.969 153.867 183.145 154.052C183.33 154.228 183.54 154.345 183.775 154.404C184.009 154.453 184.307 154.497 184.668 154.536C184.883 154.555 185.025 154.599 185.093 154.668C185.161 154.726 185.195 154.863 185.195 155.078C185.195 155.205 185.147 155.336 185.049 155.473C184.961 155.61 184.844 155.678 184.697 155.678H176.568Z" fill="#C19B1A"/>
<path d="M187.261 155.678C187.105 155.678 186.983 155.615 186.895 155.488C186.807 155.351 186.763 155.214 186.763 155.078C186.763 154.912 186.797 154.785 186.865 154.697C186.934 154.609 187.061 154.555 187.246 154.536C187.686 154.497 188.052 154.419 188.345 154.301C188.648 154.174 188.799 153.989 188.799 153.745V144.282C188.799 143.833 188.716 143.491 188.55 143.256C188.384 143.022 188.189 142.866 187.964 142.788C187.749 142.71 187.466 142.646 187.114 142.597C186.831 142.558 186.665 142.529 186.616 142.509C186.499 142.461 186.411 142.392 186.353 142.304C186.294 142.216 186.265 142.089 186.265 141.923C186.265 141.787 186.294 141.65 186.353 141.513C186.421 141.367 186.509 141.289 186.616 141.279C189.341 141.162 191.416 141.093 192.842 141.074C192.94 141.074 193.032 141.118 193.12 141.206C193.208 141.294 193.262 141.445 193.281 141.66V143.3C193.535 143.027 193.97 142.695 194.585 142.304C195.21 141.914 195.947 141.572 196.797 141.279C197.647 140.976 198.511 140.825 199.39 140.825C200.318 140.825 201.109 140.991 201.763 141.323C202.417 141.655 202.896 142.241 203.198 143.081C203.941 142.524 204.854 142.011 205.938 141.543C207.031 141.064 208.237 140.825 209.556 140.825C210.366 140.825 211.06 140.947 211.636 141.191C212.212 141.425 212.671 141.865 213.013 142.509C213.364 143.144 213.54 144.038 213.54 145.19V153.261C213.54 153.75 213.677 154.072 213.95 154.228C214.234 154.375 214.522 154.462 214.815 154.492C215.117 154.511 215.313 154.526 215.401 154.536C215.576 154.555 215.698 154.604 215.767 154.682C215.845 154.751 215.884 154.882 215.884 155.078C215.884 155.214 215.84 155.351 215.752 155.488C215.664 155.615 215.542 155.678 215.386 155.678H207.52C207.363 155.678 207.241 155.615 207.153 155.488C207.066 155.351 207.022 155.214 207.022 155.078C207.022 154.912 207.051 154.785 207.109 154.697C207.178 154.609 207.3 154.555 207.476 154.536C207.827 154.506 208.15 154.423 208.443 154.287C208.735 154.14 208.882 153.96 208.882 153.745V145.263C208.882 144.882 208.853 144.541 208.794 144.238C208.735 143.935 208.574 143.662 208.311 143.418C208.057 143.173 207.666 143.051 207.139 143.051C205.928 143.051 204.707 143.554 203.477 144.56C203.496 144.834 203.506 145.044 203.506 145.19V153.261C203.506 153.759 203.618 154.082 203.843 154.228C204.068 154.375 204.312 154.462 204.575 154.492C204.849 154.511 205.025 154.526 205.103 154.536C205.278 154.555 205.401 154.604 205.469 154.682C205.547 154.751 205.586 154.882 205.586 155.078C205.586 155.214 205.542 155.351 205.454 155.488C205.366 155.615 205.244 155.678 205.088 155.678H197.515C197.359 155.678 197.236 155.615 197.149 155.488C197.061 155.351 197.017 155.214 197.017 155.078C197.017 154.912 197.046 154.785 197.105 154.697C197.173 154.609 197.295 154.555 197.471 154.536C197.832 154.506 198.174 154.423 198.496 154.287C198.828 154.14 198.994 153.96 198.994 153.745V145.263C198.994 144.697 198.872 144.189 198.628 143.74C198.384 143.281 197.881 143.051 197.119 143.051C196.592 143.051 196.118 143.129 195.698 143.286C195.288 143.442 194.942 143.628 194.658 143.842C194.375 144.047 194.048 144.316 193.677 144.648C193.628 144.707 193.545 144.785 193.428 144.882V153.261C193.428 153.613 193.496 153.881 193.633 154.067C193.77 154.243 193.941 154.36 194.146 154.419C194.351 154.467 194.609 154.506 194.922 154.536C195.137 154.555 195.278 154.599 195.347 154.668C195.415 154.726 195.449 154.863 195.449 155.078C195.449 155.205 195.401 155.336 195.303 155.473C195.215 155.61 195.098 155.678 194.951 155.678H187.261Z" fill="#C19B1A"/>
<path d="M246.089 154.389C246.304 154.409 246.445 154.453 246.514 154.521C246.582 154.58 246.616 154.716 246.616 154.931C246.616 155.078 246.568 155.239 246.47 155.415C246.382 155.59 246.265 155.678 246.118 155.678H237.007C236.86 155.678 236.738 155.59 236.641 155.415C236.553 155.239 236.509 155.078 236.509 154.931C236.509 154.765 236.543 154.638 236.611 154.55C236.68 154.462 236.807 154.409 236.992 154.389L237.578 154.36C238.057 154.35 238.389 154.326 238.574 154.287C238.76 154.238 238.853 154.135 238.853 153.979C238.853 153.911 238.838 153.833 238.809 153.745L236.978 148.691L229.961 148.676L228.145 153.745C228.115 153.813 228.101 153.877 228.101 153.935C228.101 154.111 228.223 154.223 228.467 154.272C228.711 154.321 229.102 154.35 229.639 154.36L230.254 154.389C230.44 154.409 230.567 154.462 230.635 154.55C230.703 154.638 230.737 154.765 230.737 154.931C230.737 155.078 230.689 155.239 230.591 155.415C230.503 155.59 230.386 155.678 230.239 155.678H224.043C223.887 155.678 223.765 155.605 223.677 155.459C223.589 155.312 223.545 155.136 223.545 154.931C223.545 154.716 223.579 154.58 223.648 154.521C223.716 154.453 223.858 154.409 224.072 154.389C224.151 154.379 224.277 154.375 224.453 154.375C224.756 154.365 225.01 154.34 225.215 154.301C225.43 154.253 225.635 154.15 225.83 153.994C226.026 153.828 226.187 153.584 226.314 153.261L233.345 134.57H236.773L243.731 153.261C243.858 153.593 244.024 153.842 244.229 154.008C244.434 154.165 244.644 154.262 244.859 154.301C245.073 154.34 245.342 154.365 245.664 154.375C245.859 154.375 246.001 154.379 246.089 154.389ZM233.784 138.247L230.371 147.431H236.538L233.784 138.247Z" fill="#C19B1A"/>
<path d="M247.656 155.678C247.5 155.678 247.378 155.615 247.29 155.488C247.202 155.351 247.158 155.214 247.158 155.078C247.158 154.912 247.193 154.785 247.261 154.697C247.339 154.599 247.466 154.545 247.642 154.536C248.101 154.497 248.496 154.419 248.828 154.301C249.16 154.174 249.326 153.989 249.326 153.745L249.341 136.225C249.341 135.766 249.248 135.419 249.063 135.185C248.877 134.951 248.657 134.794 248.403 134.716C248.15 134.638 247.822 134.575 247.422 134.526C247.09 134.477 246.904 134.448 246.865 134.438C246.748 134.389 246.66 134.321 246.602 134.233C246.543 134.145 246.514 134.018 246.514 133.852C246.514 133.715 246.548 133.579 246.616 133.442C246.685 133.295 246.768 133.217 246.865 133.208C248.975 133.071 251.148 133.003 253.384 133.003C253.491 133.003 253.589 133.051 253.677 133.149C253.775 133.237 253.823 133.383 253.823 133.588V153.261C253.823 153.603 253.911 153.867 254.087 154.052C254.273 154.228 254.483 154.345 254.717 154.404C254.951 154.453 255.249 154.497 255.61 154.536C255.825 154.555 255.967 154.599 256.035 154.668C256.104 154.726 256.138 154.863 256.138 155.078C256.138 155.214 256.094 155.351 256.006 155.488C255.918 155.615 255.796 155.678 255.64 155.678H247.656Z" fill="#C19B1A"/>
<path d="M266.216 156.103C263.374 156.103 261.265 155.434 259.888 154.096C258.511 152.758 257.822 150.835 257.822 148.325C257.822 146.753 258.189 145.4 258.921 144.267C259.663 143.134 260.654 142.28 261.895 141.704C263.135 141.118 264.497 140.825 265.982 140.825C268.15 140.825 269.766 141.25 270.83 142.099C271.895 142.939 272.564 144.174 272.837 145.805C272.925 146.333 272.969 147.138 272.969 148.222L262.803 148.237C262.803 149.653 263.023 150.8 263.462 151.679C263.911 152.558 264.478 153.188 265.161 153.569C265.845 153.95 266.568 154.14 267.329 154.14C268.228 154.14 268.98 154.023 269.585 153.789C270.2 153.554 270.737 153.169 271.196 152.631C271.206 152.622 271.231 152.592 271.27 152.544C271.318 152.485 271.367 152.446 271.416 152.426C271.465 152.407 271.519 152.402 271.577 152.412L272.222 152.719C272.319 152.758 272.368 152.817 272.368 152.895C272.368 152.954 272.339 153.037 272.28 153.144C271.753 154.062 270.982 154.785 269.966 155.312C268.95 155.839 267.7 156.103 266.216 156.103ZM268.091 146.875C268.091 145.185 267.92 143.964 267.578 143.212C267.236 142.451 266.69 142.07 265.938 142.07C265.147 142.07 264.463 142.465 263.887 143.256C263.32 144.038 262.974 145.244 262.847 146.875H268.091Z" fill="#C19B1A"/>
<path d="M281.187 156.118C279.78 156.118 278.657 155.844 277.818 155.297C276.987 154.751 276.572 153.789 276.572 152.412V142.714H275.005C274.907 142.705 274.824 142.631 274.756 142.495C274.688 142.348 274.653 142.207 274.653 142.07C274.653 141.894 274.683 141.748 274.741 141.63C274.81 141.513 274.902 141.435 275.02 141.396L276.851 140.854C277.075 140.805 277.329 140.61 277.612 140.268C277.905 139.917 278.179 139.467 278.433 138.92C278.687 138.364 278.887 137.758 279.033 137.104C279.121 136.723 279.497 136.533 280.161 136.533C280.903 136.533 281.275 136.699 281.275 137.031V141.118H284.512C284.619 141.128 284.702 141.181 284.761 141.279C284.829 141.377 284.863 141.489 284.863 141.616C284.863 141.919 284.815 142.172 284.717 142.378C284.629 142.583 284.531 142.685 284.424 142.685H281.275V151.108C281.275 151.938 281.314 152.573 281.392 153.012C281.48 153.442 281.616 153.74 281.802 153.906C281.997 154.062 282.276 154.14 282.637 154.14C282.959 154.14 283.34 154.077 283.779 153.95C284.219 153.823 284.624 153.667 284.995 153.481C285.054 153.452 285.137 153.51 285.244 153.657C285.352 153.803 285.435 153.964 285.493 154.14C285.552 154.306 285.552 154.409 285.493 154.448C285.249 154.711 284.868 154.975 284.351 155.239C283.843 155.493 283.296 155.703 282.71 155.869C282.134 156.035 281.626 156.118 281.187 156.118Z" fill="#C19B1A"/>
<path d="M287.09 155.678C286.934 155.678 286.812 155.615 286.724 155.488C286.636 155.351 286.592 155.214 286.592 155.078C286.592 154.912 286.626 154.785 286.694 154.697C286.773 154.599 286.9 154.545 287.075 154.536C287.534 154.497 287.93 154.419 288.262 154.301C288.594 154.174 288.76 153.989 288.76 153.745L288.775 136.225C288.775 135.766 288.682 135.419 288.496 135.185C288.311 134.951 288.091 134.794 287.837 134.716C287.583 134.638 287.256 134.575 286.856 134.526C286.524 134.477 286.338 134.448 286.299 134.438C286.182 134.389 286.094 134.321 286.035 134.233C285.977 134.145 285.947 134.018 285.947 133.852C285.947 133.715 285.982 133.579 286.05 133.442C286.118 133.295 286.201 133.217 286.299 133.208C288.408 133.071 290.581 133.003 292.818 133.003C292.925 133.003 293.023 133.051 293.11 133.149C293.208 133.237 293.257 133.383 293.257 133.588V153.261C293.257 153.603 293.345 153.867 293.521 154.052C293.706 154.228 293.916 154.345 294.151 154.404C294.385 154.453 294.683 154.497 295.044 154.536C295.259 154.555 295.401 154.599 295.469 154.668C295.537 154.726 295.571 154.863 295.571 155.078C295.571 155.214 295.527 155.351 295.44 155.488C295.352 155.615 295.23 155.678 295.073 155.678H287.09Z" fill="#C19B1A"/>
<path d="M305.65 156.103C302.808 156.103 300.698 155.434 299.321 154.096C297.944 152.758 297.256 150.835 297.256 148.325C297.256 146.753 297.622 145.4 298.355 144.267C299.097 143.134 300.088 142.28 301.328 141.704C302.568 141.118 303.931 140.825 305.415 140.825C307.583 140.825 309.199 141.25 310.264 142.099C311.328 142.939 311.997 144.174 312.271 145.805C312.359 146.333 312.402 147.138 312.402 148.222L302.236 148.237C302.236 149.653 302.456 150.8 302.896 151.679C303.345 152.558 303.911 153.188 304.595 153.569C305.278 153.95 306.001 154.14 306.763 154.14C307.661 154.14 308.413 154.023 309.019 153.789C309.634 153.554 310.171 153.169 310.63 152.631C310.64 152.622 310.664 152.592 310.703 152.544C310.752 152.485 310.801 152.446 310.85 152.426C310.899 152.407 310.952 152.402 311.011 152.412L311.655 152.719C311.753 152.758 311.802 152.817 311.802 152.895C311.802 152.954 311.773 153.037 311.714 153.144C311.187 154.062 310.415 154.785 309.4 155.312C308.384 155.839 307.134 156.103 305.65 156.103ZM307.525 146.875C307.525 145.185 307.354 143.964 307.012 143.212C306.67 142.451 306.123 142.07 305.371 142.07C304.58 142.07 303.897 142.465 303.32 143.256C302.754 144.038 302.407 145.244 302.28 146.875H307.525Z" fill="#C19B1A"/>
<path d="M314.907 155.678C314.751 155.678 314.629 155.615 314.541 155.488C314.453 155.351 314.409 155.214 314.409 155.078C314.409 154.912 314.443 154.785 314.512 154.697C314.58 154.609 314.707 154.555 314.893 154.536C315.371 154.497 315.772 154.419 316.094 154.301C316.426 154.174 316.592 153.989 316.592 153.745V144.282C316.592 143.823 316.509 143.471 316.343 143.227C316.177 142.983 315.982 142.822 315.757 142.744C315.532 142.666 315.239 142.597 314.878 142.539C314.829 142.529 314.756 142.519 314.658 142.509C314.561 142.49 314.478 142.47 314.409 142.451C314.292 142.402 314.204 142.334 314.146 142.246C314.087 142.158 314.058 142.031 314.058 141.865C314.058 141.728 314.092 141.591 314.16 141.455C314.229 141.308 314.312 141.23 314.409 141.22C316.177 141.152 318.101 141.103 320.181 141.074H320.606C320.703 141.074 320.796 141.118 320.884 141.206C320.972 141.294 321.026 141.445 321.045 141.66V144.633C321.328 143.999 321.734 143.393 322.261 142.817C322.798 142.231 323.418 141.753 324.121 141.381C324.824 141.01 325.552 140.825 326.304 140.825C327.144 140.825 327.764 141.084 328.164 141.601C328.565 142.109 328.765 142.739 328.765 143.491C328.765 143.969 328.652 144.423 328.428 144.853C328.203 145.283 327.92 145.629 327.578 145.893C327.246 146.147 326.924 146.274 326.611 146.274L324.473 143.476C323.828 143.476 323.213 143.798 322.627 144.443C322.041 145.078 321.572 145.835 321.221 146.713V153.261C321.221 153.584 321.328 153.828 321.543 153.994C321.768 154.16 322.036 154.277 322.349 154.345C322.661 154.404 323.067 154.458 323.565 154.506L323.872 154.536C324.087 154.555 324.229 154.599 324.297 154.668C324.365 154.726 324.4 154.863 324.4 155.078C324.4 155.214 324.356 155.351 324.268 155.488C324.18 155.615 324.058 155.678 323.901 155.678H314.907Z" fill="#C19B1A"/>
<path d="M330.581 155.678C330.425 155.678 330.303 155.615 330.215 155.488C330.127 155.351 330.083 155.214 330.083 155.078C330.083 154.912 330.117 154.785 330.186 154.697C330.264 154.599 330.391 154.545 330.567 154.536C331.026 154.497 331.421 154.419 331.753 154.301C332.085 154.174 332.251 153.989 332.251 153.745L332.266 144.282C332.266 143.833 332.183 143.491 332.017 143.256C331.86 143.022 331.67 142.866 331.445 142.788C331.231 142.71 330.947 142.646 330.596 142.597C330.293 142.548 330.122 142.519 330.083 142.509C329.966 142.461 329.878 142.392 329.819 142.304C329.761 142.216 329.732 142.089 329.732 141.923C329.732 141.787 329.761 141.65 329.819 141.513C329.888 141.367 329.976 141.289 330.083 141.279C332.251 141.142 334.375 141.074 336.455 141.074C336.563 141.074 336.66 141.123 336.748 141.22C336.846 141.308 336.895 141.455 336.895 141.66V153.261C336.895 153.603 336.983 153.867 337.158 154.052C337.344 154.228 337.554 154.345 337.788 154.404C338.023 154.453 338.32 154.497 338.682 154.536C338.897 154.555 339.038 154.599 339.107 154.668C339.175 154.726 339.209 154.863 339.209 155.078C339.209 155.205 339.16 155.336 339.063 155.473C338.975 155.61 338.858 155.678 338.711 155.678H330.581ZM334.478 138.54C333.97 138.54 333.506 138.427 333.086 138.203C332.666 137.968 332.334 137.651 332.09 137.251C331.846 136.84 331.724 136.377 331.724 135.859C331.724 135.341 331.846 134.878 332.09 134.467C332.334 134.057 332.666 133.74 333.086 133.515C333.506 133.281 333.97 133.164 334.478 133.164C334.976 133.164 335.435 133.281 335.855 133.515C336.275 133.74 336.607 134.057 336.851 134.467C337.105 134.878 337.232 135.341 337.232 135.859C337.232 136.377 337.105 136.84 336.851 137.251C336.607 137.651 336.275 137.968 335.855 138.203C335.435 138.427 334.976 138.54 334.478 138.54Z" fill="#C19B1A"/>
</svg>
