<svg width="208" height="163" viewBox="0 0 208 163" fill="none" xmlns="http://www.w3.org/2000/svg">
<path fill-rule="evenodd" clip-rule="evenodd" d="M103.727 36.1278L106.996 29.862V13.5164H101.139V0.712402H182.322V13.5164H174.83L188.724 79.4436V85.3008L171.561 100.42H158.893V106.959H191.176L207.113 131.068V141.557L191.176 161.716H185.182L179.325 152.318H173.059L166.385 161.716H161.617L154.534 152.318H149.222L143.092 161.716H136.69L128.926 152.318H124.567L118.983 161.716H113.67L107.132 152.318H100.594L94.7367 161.716H89.152L81.5241 152.318H76.348L70.3546 161.716H65.7233L58.7764 152.318H51.8295L46.6534 161.716H42.7032L35.7563 152.318H29.2181L22.9522 162.397L16.2778 161.716L0.477051 141.557V133.52L16.2778 106.959H39.434V100.42H26.9023L13.6897 87.2078V77.128L30.4439 36.1278H103.727ZM117.234 13.6378L107.229 66.725V80.2053L117.234 91.1841H164.763L178.66 80.2053V68.8096L168.793 13.6378H117.234Z" fill="#0A1638"/>
<path d="M123.582 82.8909L115.185 75.2289L160.318 29.2422H163.671L162.837 44.266L123.582 82.8909Z" fill="#0A1638"/>
<path d="M143.198 84.1722H133.21L164.516 50.8784H168.499V57.0401L143.198 84.1722Z" fill="#0A1638"/>
</svg>
