<svg width="36" height="116" viewBox="0 0 36 116" fill="none" xmlns="http://www.w3.org/2000/svg">
<path d="M0.331787 0.247086H35.2119V28.5093H0.331787V0.247086Z" fill="#0A1638"/>
<path d="M35.2119 49.0424C35.2119 58.6742 27.4037 66.4824 17.7719 66.4824C8.13997 66.4824 0.331787 58.6742 0.331787 49.0424C0.331787 39.4105 8.13997 31.6023 17.7719 31.6023C27.4037 31.6023 35.2119 39.4105 35.2119 49.0424Z" fill="#0A1638"/>
<path d="M35.2119 87.0151C35.2119 96.647 27.4037 104.455 17.7719 104.455C8.13997 104.455 0.331787 96.647 0.331787 87.0151C0.331787 77.3833 8.13997 69.5751 17.7719 69.5751C27.4037 69.5751 35.2119 77.3833 35.2119 87.0151Z" fill="#0A1638"/>
<path d="M0.331787 107.548H35.2119V115.248H0.331787V107.548Z" fill="#0A1638"/>
</svg>
